<svg id="Layer_1" data-name="Layer 1" xmlns="http://www.w3.org/2000/svg" viewBox="-400 -400 5600 5600"><defs><style>.cls-1{fill:#ff4b4b;}.cls-2{fill:#fffefe;}.cls-3{fill:#ffbaba;}</style></defs><path class="cls-1" d="M2315,240h179v2h36v2l2.21,0c16.29-.1,32.52.12,48.79,1v2h21v2h20v2l2.94,0c9.73-.07,19.36.32,29.06,1v2h16v2h14v2h12v2l2.86,0a218.71,218.71,0,0,1,24.14,1v2h11v2h12v2l2,0a171,171,0,0,1,20,1v2h10v2h11v2h9v2l1.87,0a122.63,122.63,0,0,1,17.13,1v2h9v2h9v2l3.94-.06A108.66,108.66,0,0,1,2853,284v2h9v2h7v2l1.72,0a78.39,78.39,0,0,1,14.28,1v2h9v2h7v2h7v2l16,1v2h7v2h7v2l3.19-.06A38.26,38.26,0,0,1,2950,307v2h7v2h8v2h7v2l3.19-.06A38.26,38.26,0,0,1,2984,316v2h7v2h6v2l3.19-.06A38.26,38.26,0,0,1,3009,323v2h7v2h5v2h7v2l11,1v2h5v2h8v2l10,1v2h6v2h5v2h5v2l13,1v2h5v2h3v2l11,1v2h5v2h6v2l10,1v2h6v2h3v2h6v2l10,1v2h4v2h5v2l9,1v2h5v2h6v2h3v2l9,1v2h5v2h4v2l9,1v2h5v2h4v2h5v2l9,1v2h4v2h5v2l7,1v2h5v2h4v2h3v2l9,1v2h4v2h3v2l9,1v2h4v2h3v2h6v2l7,1v2h3v2h4v2l9,1v2h3v2h4v2l7,1v2h3v2h4v2h4v2l7,1v2h3v2h4v2l9,1v2h3v2h4v2h2v2l7,1v2h3v2h4v2l7,1v2h3v2h4v2h4v2l7,1v2h3v2h4l1,2a20.19,20.19,0,0,0,4,1v2h4v2h3v2h4v2l5,1v2h4v2h3v2l7,1v2h2v2h4v2h3v2l7,1v2h2v2h4v2l5,1v2h3v2h4v2l5,1v2h4v2h3v2h2v2l7,1v2h2v2h4v2l5,1v2h3v2h4v2h2v2l7,1v2h2v2h3v2l6,1v2h3v2h2v2h3v2l6,1v2h3v2h2v2l5,1v2h4v2h2v2h3v2l6,1c.49,2,.49,2,1,4h4v2l5,1v2h2v2h4l1,2a20.19,20.19,0,0,0,4,1v2h2v2h3v2h2v2l5,1v2h4v2h2v2l5,1v2h4c.49,2,.49,2,1,4h2v2l5,1v2h4v2h2v2l5,1v2h2v2h3v2h2v2l5,1v2h2v2h4v2l3,1v2h4v2h2v2h3v2l4,1v2h3v2h2v2l5,1v2h2v2h2v2h4a11.55,11.55,0,0,1,3,3v2h4c.49,2,.49,2,1,4l4,1v2h4c.49,2,.49,2,1,4l6,1c.49,2,.49,2,1,4h2v2h4v2l3,1v2h2v2h4a11.55,11.55,0,0,1,3,3v2h2v2h3v2h2v2l4,1v2h3v2h2v2l4,1v2h3v2h2v2h2v2l3,1v2h4v2h2a17.74,17.74,0,0,1,3,3v2h2v2h4c.49,2,.49,2,1,4l4,1v2h2v2h3v2l4,1v2h2l1,4h2v2l5,1v2h2v2h2v2l3,1v2h2v2h4v2l3,1v2h2v2h2v2h2l1,2a20.19,20.19,0,0,0,4,1v2h2v2h2a17.74,17.74,0,0,1,3,3v2h2v2h2l1,4,4,1v2h4l1,4,4,1v2h2l1,4h2v2l4,1v2h2l1,4,6,1,1,4h2v2h2v2l4,1,1,4h2v2l4,1,1,4h2v2l4,1,1,4h2v2h2v2l4,1,1,4h2v2l4,1,1,4h2v2h2v2l4,1,1,4h2v2l4,1,1,4h2v2h2v2l4,1,1,4h2v2l4,1,1,4h2v2h2v2l4,1,1,4h2v2l4,1,1,4h2v2h2v2h2v3h2l1,4,4,1v2h2l1,4,4,1v2h2l1,4h2v2h2v3h2v2h2a17.74,17.74,0,0,1,3,3v2h2v2h2l1,4,4,1v2h2v4l3,1v2h2v2h2v2h2a11.55,11.55,0,0,1,3,3v4h2v2l4,1,1,4h2v2h2v2h2l1,5h2v2l4,1v2h2l1,6,4,1v2h2l1,4h2v3h2v2h2a17.74,17.74,0,0,1,3,3v2h2v4h2v2l3,1v2h2v2h2v3h2l1,4h2v2h2v3h2v2h2l1,4h2v3h2v2h2l1,4h2v3h2v2h2v2l3,1v4h2v2h2v2h2l1,5h2v2h2v3h2v2h2a11.55,11.55,0,0,1,3,3v4h2v2h2l1,5h2v2h2v2h2v3h2l1,4h2v3h2v2h2l1,5h2v2h2v4h2a11.55,11.55,0,0,1,3,3v4h2v2l4,1,1,6h2v3h2v2h2l1,5h2v2h2v4h2v2h2l1,5h2v2h2v3h2l1,5h2v2h2v4h2v2h2l1,5h2v3h2v2h2l1,6h2v3h2v2h2v3h2l1,6h2v2h2v3h2l1,5h2v2h2v4h2v2h2l1,5h2v3h2v4h2l1,5h2v2h2v4h2l1,5h2v3h2v2h2v4h2l1,5h2v4h2v3h2l1,6h2v3h2v2h2v3h2l1,6h2v3h2v4h2l1,5h2v4h2v3h2v2h2l1,7h2v2h2v3h2l1,8h2v3h2v2h2v3h2l1,8h2v3h2v2h2l1,7h2v4h2v3h2c.12.64.25,1.28.38,1.94s.41,1.36.62,2.06l2,1v4h2v4h2v3h2l1,7h2v4h2v3h2l1,7h2v4h2v3h2v4h2c.12.64.25,1.28.38,1.94s.41,1.36.62,2.06l2,1v4h2v3h2l1,9h2v4h2v3h2v4h2c.5,3.46.5,3.46,1,7h2v4h2v3h2c.5,3.46.5,3.46,1,7h2v4h2v3h2v6h2c.5,3.46.5,3.46,1,7h2v3h2v4h2c.5,4.45.5,4.45,1,9h2v3h2v4h2v3h2c.5,4.45.5,4.45,1,9h2v4h2v3h2c.5,4.45.5,4.45,1,9h2v4h2v5h2c.5,3.46.5,3.46,1,7h2v6h2v3h2v5h2c.5,4.45.5,4.45,1,9h2v4h2v5h2c.5,4.45.5,4.45,1,9h2v4h2v5h2v4h2l1,8h2v6h2v5h2c.5,4.45.5,4.45,1,9h2v5h2v4h2v5h2l1,11h2v3h2v6h2c.5,5,.5,5,1,10h2v6h2v5h2v5h2c.5,4.45.5,4.45,1,9h2v7h2v6h2c.5,5,.5,5,1,10h2v6h2v5h2v5h2c.5,6.44.5,6.44,1,13h2v5h2v5h2c.5,6.44.5,6.44,1,13h2v5h2v7h2c.5,6.44.5,6.44,1,13h2v5h2v7h2v5h2a80.1,80.1,0,0,1,1,15h2v7h2v7h2a45.56,45.56,0,0,1,1,12h2v7h2v7h2v9h2c.5,6.93.5,6.93,1,14h2v8h2v8h2c.5,7.92.5,7.92,1,16h2v8h2v8h2v9h2a124.56,124.56,0,0,1,1,18h2v9h2v9h2a141.88,141.88,0,0,1,1,19h2v11h2v11h2v10h2a182.08,182.08,0,0,1,1,23h2v11h2v12h2c.69,9,1.15,17.94,1,27h2v14h2v16h2c.8,10.69,1.13,21.28,1,32h2v20h2v21h2v23h2c1,22,1.12,44,1,66h2v177h-2l0,3c.1,21,0,42-1,63h-2v23h-2v21h-2v20h-2c0,1,0,1.94,0,2.94.07,9.73-.32,19.36-1,29.06h-2v16h-2v14h-2c0,.78,0,1.55,0,2.35.06,8.26-.35,16.42-1,24.65h-2v12h-2v11h-2c0,1.11,0,1.11,0,2.24a173.47,173.47,0,0,1-1,20.76h-2v11h-2v10h-2v11h-2c0,1.28,0,2.56.06,3.88A127.61,127.61,0,0,1,4545,2821h-2v9h-2v9h-2c0,1.3,0,2.6.06,3.94A108.66,108.66,0,0,1,4538,2857h-2v9h-2v9h-2v7h-2c0,.85,0,.85,0,1.72a78.39,78.39,0,0,1-1,14.28h-2v9h-2v7h-2l-1,14h-2v9h-2v7h-2v7h-2c0,1.05,0,2.1.06,3.19A38.26,38.26,0,0,1,4513,2963h-2v8h-2v7h-2l-1,14h-2v5h-2v7h-2v6h-2c0,1.05,0,2.1.06,3.19A38.26,38.26,0,0,1,4497,3022h-2v7h-2v5h-2c0,1.22,0,2.43.06,3.69A36.56,36.56,0,0,1,4490,3047h-2v5h-2v5h-2c0,1.22,0,2.43.06,3.69A36.56,36.56,0,0,1,4483,3070h-2v5h-2v6h-2v5h-2l-1,11h-2v5h-2v5h-2l-1,11h-2v5h-2v6h-2v5h-2l-1,10h-2v6h-2v3h-2l-1,11h-2v5h-2v4h-2v5h-2c-.5,4.46-.5,4.46-1,9h-2v5h-2v6h-2c-.5,4.46-.5,4.46-1,9h-2v3h-2v6h-2v3h-2c-.5,4.46-.5,4.46-1,9h-2v5h-2v4h-2c-.5,4.46-.5,4.46-1,9h-2v5h-2v4h-2v5h-2l-1,7h-2v5h-2v4h-2c-.5,4.46-.5,4.46-1,9h-2v3h-2v4h-2c-.5,4.46-.5,4.46-1,9h-2v3h-2v4h-2v3h-2c-.5,4.46-.5,4.46-1,9h-2v4h-2v3h-2l-1,7h-2v6h-2v3h-2v4h-2l-1,7h-2v4h-2v3h-2l-1,7h-2v4h-2v3h-2v4h-2c-.49,4.46-.49,4.46-1,9h-2v3h-2v4h-2l-1,5h-2v4h-2v3h-2v4h-2l-1,7h-2v3h-2v4h-2l-1,7h-2v4h-2v3h-2v4h-2l-1,5h-2v4h-2v3h-2l-1,7h-2v2h-2v4h-2l-1,7h-2v3h-2v2h-2v4h-2l-1,7h-2v3h-2v2h-2l-1,7h-2v2h-2v3h-2v4h-2l-1,5h-2v4h-2v3h-2l-1,6h-2v3h-2v2h-2v4h-2l-1,5h-2v3h-2v4h-2l-1,5h-2v4h-2v2h-2v3h-2l-1,6h-2v3h-2v2h-2l-1,5h-2v4h-2v3h-2l-1,6-4,1v4h-2v2h-2l-1,5h-2v4l-4,1-1,6h-2v3h-2v2h-2v4l-2,1a20.19,20.19,0,0,0-1,4h-2v2h-2v3h-2l-1,6-4,1v4h-2v2h-2l-1,5h-2v4l-4,1-1,6-4,1v4h-2v2h-2l-1,5h-2v2h-2v3h-2l-1,6h-2v2l-4,1v4h-2c-.49,1.49-.49,1.49-1,3h-2v4h-2v2h-2l-1,5h-2v2h-2v3h-2l-1,4h-2v3h-2v2h-2v2h-2l-1,5h-2v2h-2v4a11.55,11.55,0,0,1-3,3h-2v2h-2v4l-4,1-1,6-4,1v2h-2l-1,6-4,1v2h-2v4a11.55,11.55,0,0,1-3,3h-2v2h-2v4a11.55,11.55,0,0,1-3,3h-2v2h-2v3h-2v2h-2l-1,4h-2v3h-2v2h-2l-1,4-4,1v4h-2v2a17.74,17.74,0,0,1-3,3h-2v2h-2v4a11.55,11.55,0,0,1-3,3h-2v2h-2v2h-2l-1,5h-2v2h-2v2l-4,1-1,6-4,1v2h-2l-1,4h-2v2l-4,1v4h-2c-.49,1.49-.49,1.49-1,3h-2v2h-2v2h-2l-1,4h-2v3h-2v2h-2v2a17.74,17.74,0,0,1-3,3h-2v2h-2v2a17.74,17.74,0,0,1-3,3h-2v2h-2v4l-4,1-1,4h-2v2l-4,1-1,4h-2v2h-2v2a17.74,17.74,0,0,1-3,3h-2v4l-4,1v2h-2l-1,4h-2v2l-4,1-1,4h-2v2l-4,1v2h-2l-1,4h-2v2l-4,1-1,4h-2v2l-4,1v2h-2l-1,4h-2v2l-4,1-1,4h-2v2l-4,1v2h-2l-1,4-4,1v2h-2l-1,4h-2v2l-4,1v2h-2l-1,4-4,1v2h-2l-1,4h-2v2l-4,1-1,4h-2v2l-4,1v2h-2l-1,4h-4v2a17.74,17.74,0,0,1-3,3h-2v2h-2v2l-4,1-1,4h-2v2h-2v2a11.55,11.55,0,0,1-3,3h-4v2h-2v2a17.74,17.74,0,0,1-3,3h-2v2h-2v2a17.74,17.74,0,0,1-3,3h-2v2h-2v2h-4c-.49,1.49-.49,1.49-1,3h-2v2h-2v2h-2c-.49,1.49-.49,1.49-1,3h-2v2h-4v2h-2l-1,4-4,1v2h-2l-1,4-6,1-1,4h-2v2h-2v2l-5,1v2h-2v2h-2v2a11.55,11.55,0,0,1-3,3h-4v2h-2v2h-2c-.49,1.49-.49,1.49-1,3h-2v2h-4l-1,4-4,1v2h-2v2h-3v2h-2v2l-4,1v2h-3v2h-2v2l-4,1v2h-3v2h-2v2a11.55,11.55,0,0,1-3,3h-4v2h-2l-1,4-6,1v2h-2l-1,4-6,1-1,4h-4v2h-2v2a11.55,11.55,0,0,1-3,3h-4v2h-2c-.49,1.49-.49,1.49-1,3h-4v2h-2v2h-2v2h-3v2l-4,1v2h-3v2h-2v2l-5,1v2h-2v2h-4l-1,4-6,1v2h-2l-1,4-6,1v2h-3v2h-2v2h-2v2l-5,1v2h-4l-1,4-6,1-1,4h-4v2l-5,1v2h-2v2h-4l-1,4-6,1v2h-3v2h-2v2l-1.94.38-2.06.62-1,2h-4v2h-2v2h-3v2l-6,1-1,4h-4v2l-5,1v2h-2v2h-4l-1,4-6,1v2h-3v2h-4v2l-5,1v2h-2v2h-3v2h-4v2l-5,1v2h-2v2h-4v2l-5,1v2h-4v2h-3v2l-5,1v2h-4v2h-2v2h-3v2l-6,1v2h-3v2h-4c-.49,1.49-.49,1.49-1,3h-4v2h-4v2h-3v2h-2v2l-7,1v2h-2v2h-3v2l-7,1v2h-4v2h-2v2h-3v2l-7,1v2h-4v2h-2v2l-7,1v2h-3v2h-4v2h-4l-1,3h-4v2h-3v2h-4v2l-7,1v2h-4v2h-3v2h-4v2l-7,1v2h-3v2h-4v2l-5,1v2h-4v2h-3v2l-9,1v2h-4v2h-3v2h-4v2l-7,1v2h-4v2h-3v2l-7,1v2h-4v2h-3v2h-6v2l-7,1v2h-3v2h-4v2l-9,1v2h-3v2h-4v2h-3v2l-9,1v2h-4v2h-3v2l-9,1v2h-4v2h-5v2h-4v2l-8,1v2h-4v2h-5v2l-9,1v2h-4v2h-5v2h-4v2l-9,1v2h-5v2h-3v2l-9,1v2h-6v2h-5v2l-9,1v2h-5v2h-4v2h-5v2l-11,1v2h-3v2h-6v2l-10,1v2h-6v2h-5v2h-5v2l-9,1v2h-7v2h-5v2l-11,1v2h-5v2h-6v2h-5v2c-4.41,1.1-8.48,1.08-13,1v2h-5v2h-5v2l-13,1v2h-5v2h-7v2h-5v2l-13,1v2h-7v2h-5v2l-14,1v2h-8v2h-7v2a45.56,45.56,0,0,1-12,1v2h-7v2h-7v2h-9v2l-14,1v2h-7v2h-9v2a83.12,83.12,0,0,1-16,1v2h-7v2h-9v2h-9v2a124.56,124.56,0,0,1-18,1v2h-9v2h-9v2a141.88,141.88,0,0,1-19,1v2h-11v2h-10v2h-11v2a182.08,182.08,0,0,1-23,1v2h-11v2h-12v2c-9,.69-17.94,1.15-27,1v2h-14v2h-16v2h-16v2c-12,.94-23.95,1.11-36,1v2h-21v2h-23v2c-22,1-44,1.11-66,1v2H2315v-2l-2.94,0c-21,.1-42-.09-63.06-1v-2h-23v-2h-21v-2l-3.81,0c-10.78.06-21.44-.2-32.19-1v-2h-16v-2h-16v-2h-14v-2l-2.1,0c-8.35.07-16.58-.4-24.9-1v-2h-12v-2h-11v-2l-2.24,0a173.47,173.47,0,0,1-20.76-1v-2h-10v-2h-11v-2h-11v-2l-3.88.06A127.61,127.61,0,0,1,1999,4558v-2h-9v-2h-9v-2l-3.94.06A108.66,108.66,0,0,1,1963,4551v-2h-9v-2h-8v-2h-8v-2l-16-1v-2h-8v-2h-8v-2l-14-1v-2h-9v-2h-7v-2h-7v-2l-3.19.06A38.26,38.26,0,0,1,1857,4526v-2h-7v-2h-7v-2l-3.56.06A67.62,67.62,0,0,1,1828,4519v-2h-5v-2h-7v-2l-13-1v-2h-5v-2h-7v-2h-5v-2l-13-1v-2h-5v-2h-5v-2l-13-1v-2h-5v-2h-5v-2h-6v-2l-10-1v-2h-6v-2h-7v-2l-9-1v-2h-5v-2h-5v-2h-6v-2l-10-1v-2h-6v-2h-3v-2l-11-1v-2h-5v-2h-4v-2h-5v-2l-9-1v-2h-5v-2h-6v-2l-8-1v-2h-4v-2h-5v-2l-9-1v-2h-4v-2h-5v-2h-4v-2l-9-1v-2h-5v-2h-3v-2l-9-1v-2h-4v-2h-5v-2h-4v-2l-9-1v-2h-3v-2h-4v-2l-9-1v-2h-3v-2h-4v-2h-3v-2l-9-1v-2h-4v-2h-3v-2l-7-1v-2h-6v-2h-3v-2h-4v-2l-7-1v-2h-3v-2h-4v-2l-7-1v-2h-4v-2h-3v-2h-4v-2l-9-1v-2h-3v-2h-4c-.49-1-.49-1-1-2a20.19,20.19,0,0,0-4-1v-2h-4v-2h-3v-2l-7-1v-2h-4v-2h-3v-2h-4v-2l-7-1v-2h-4v-2h-3v-2l-5-1v-2h-4v-2h-3v-2h-4v-2l-7-1v-2h-2v-2h-3v-2l-8-1v-2h-3v-2h-2v-2h-3v-2l-8-1v-2h-3v-2h-2v-2l-7-1v-2h-2v-2h-3v-2h-4v-2l-5-1v-2h-4v-2h-3v-2l-6-1v-2h-3v-2h-2v-2h-3v-2l-6-1v-2h-3v-2h-4v-2l-5-1v-2h-4v-2h-2v-2l-5-1v-2h-3v-2h-4v-2h-2v-2l-5-1v-2h-4v-2h-3v-2l-6-1-1-4h-4v-2h-2v-2l-5-1v-2h-3v-2h-2v-2l-6-1v-2h-3v-2h-2v-2h-3v-2l-6-1v-2h-2v-2h-3v-2l-5-1v-2h-2v-2h-4v-2h-2v-2l-5-1v-2h-3v-2h-2v-2l-6-1-1-4h-4v-2l-5-1v-2h-2v-2h-2v-2h-3v-2l-6-1-1-4h-2v-2l-5-1v-2h-2v-2h-4v-2h-2v-2l-5-1v-2h-2v-2h-3v-2l-4-1v-2h-3v-2h-2v-2h-2v-2l-5-1v-2h-2v-2h-4a11.55,11.55,0,0,1-3-3v-2h-2v-2h-3v-2h-2v-2l-6-1-1-4h-2v-2l-5-1v-2h-2v-2h-2v-2h-3v-2l-4-1v-2h-2v-2h-3v-2l-4-1v-2h-2v-2h-3v-2l-4-1v-2h-2v-2h-3v-2h-2v-2l-3-1v-2h-2v-2h-4v-2l-3-1v-2h-2v-2h-2v-2h-3v-2l-4-1v-2h-2v-2h-2v-2l-5-1v-2h-2l-1-4h-2v-2l-6-1-1-4h-2v-2l-4-1-1-4h-2v-2h-4a11.55,11.55,0,0,1-3-3v-2h-2v-2h-2v-2l-3-1v-2h-4v-2h-2l-1-4-4-1v-2h-2v-2h-2a17.74,17.74,0,0,1-3-3v-2h-2v-2h-3v-2l-4-1v-2h-2v-2h-2l-1-4-4-1v-2h-2l-1-4-4-1v-2h-4l-1-4h-2v-2l-4-1-1-4h-2v-2l-4-1v-2h-2l-1-4h-2v-2l-4-1-1-4h-2v-2l-4-1-1-4h-2v-2h-2v-2l-4-1-1-4h-2v-2l-4-1-1-4h-2v-2l-4-1v-2h-2l-1-4h-2v-2l-4-1-1-4h-2v-2l-4-1v-2h-2l-1-4h-2v-2l-4-1-1-4h-2v-2l-4-1v-2h-2l-1-4h-2v-2l-4-1-1-6-4-1v-2h-2l-1-4h-2v-2l-4-1v-2h-2l-1-4-4-1v-4h-2l-1-4-4-1v-2h-2v-2h-2a17.74,17.74,0,0,1-3-3v-2h-2v-2h-2l-1-5h-2v-2h-2v-2h-2v-2l-3-1v-2h-2v-4l-4-1-1-4h-2v-2h-2v-2l-4-1-1-6-4-1v-2h-2l-1-4h-2v-3h-2v-2h-2v-2h-2a11.55,11.55,0,0,1-3-3v-4h-2v-2h-2a17.74,17.74,0,0,1-3-3v-2h-2v-4l-3-1v-2h-2v-2h-2v-2h-2v-3h-2l-1-4h-2v-2h-2v-3h-2l-1-4-4-1v-4h-2v-2h-2a11.55,11.55,0,0,1-3-3v-4h-2v-2l-3-1v-2h-2v-4h-2v-2l-4-1-1-6-4-1v-4h-2l-1-4-4-1v-4h-2v-2l-3-1v-4h-2v-2h-2v-2h-2l-1-5h-2v-2h-2v-3h-2v-2h-2l-1-5h-2v-2h-2v-4l-3-1v-2h-2v-4l-4-1-1-6h-2v-2h-2v-3h-2v-2h-2l-1-5h-2v-2h-2v-4l-3-1v-4h-2v-2l-4-1v-4h-2l-1-5h-2v-2h-2v-4l-3-1v-4h-2v-2h-2v-3h-2v-2h-2c-.12-.64-.25-1.28-.38-1.94s-.41-1.36-.62-2.06l-2-1v-4h-2v-2h-2l-1-5h-2v-4l-4-1v-4h-2l-1-5h-2v-2h-2v-4l-3-1v-4h-2v-2h-2v-3h-2l-1-6h-2v-3h-2v-2h-2v-3h-2l-1-6h-2v-3h-2v-2h-2l-1-7h-2v-2h-2v-4h-2v-3h-2l-1-5h-2v-4h-2v-2h-2l-1-7h-2v-2h-2v-3h-2v-4l-3-1v-4h-2v-4h-2v-3h-2l-1-5h-2v-4h-2v-2h-2v-3h-2l-1-7h-2v-4h-2v-2h-2l-1-7h-2v-3h-2v-4h-2v-2h-2l-1-7h-2v-3h-2v-4h-2l-1-5h-2v-4h-2v-3h-2l-1-7h-2v-4h-2v-4h-2v-3h-2l-1-7h-2v-4h-2v-3h-2l-1-7h-2v-2h-2v-4h-2v-3h-2l-1-9h-2v-4h-2v-3h-2l-1-7h-2v-4h-2v-3h-2v-4h-2l-1-7h-2v-4h-2v-3h-2l-1-9h-2v-4h-2v-3h-2v-4h-2l-1-9h-2v-3h-2v-4h-2l-1-9h-2v-3h-2v-4h-2v-3h-2l-1-9h-2v-4h-2v-5h-2l-1-7h-2v-5h-2v-4h-2l-1-9h-2v-5h-2v-4h-2v-5h-2l-1-9h-2v-3h-2v-6h-2l-1-9h-2v-3h-2v-6h-2v-5h-2l-1-9h-2v-5h-2v-4h-2l-1-10h-2v-6h-2v-3h-2v-6h-2l-1-10h-2v-5h-2v-6h-2l-1-10h-2v-4h-2v-7h-2v-5h-2c-.49-5.45-.49-5.45-1-11h-2v-5h-2v-6h-2l-1-10h-2v-8h-2v-5h-2l-1-10h-2v-8h-2v-5h-2v-7h-2a45.56,45.56,0,0,1-1-12h-2v-6h-2v-7h-2a45.56,45.56,0,0,1-1-12h-2v-7h-2v-7h-2v-8h-2a45.56,45.56,0,0,1-1-12h-2v-7h-2v-7h-2l-1-16h-2v-7h-2v-7h-2v-9h-2a83.17,83.17,0,0,1-1-16h-2v-7h-2v-9h-2a124.56,124.56,0,0,1-1-18h-2v-9h-2v-9h-2v-9h-2a141.88,141.88,0,0,1-1-19h-2v-11h-2v-10h-2a173.85,173.85,0,0,1-1-22h-2v-12h-2v-11h-2v-12h-2c-.76-9-1.14-17.95-1-27h-2v-14h-2v-16h-2c-.8-10.69-1.13-21.28-1-32h-2v-20h-2v-21h-2c-.94-17-1.12-34-1-51h-2v-38h-2V2326h2v-35h2c0-.76,0-1.52,0-2.3-.09-16.6.1-33.12,1-49.7h2v-21h2v-20h2c0-1,0-1.94,0-2.94-.07-9.73.32-19.36,1-29.06h2v-16h2v-14h2c0-1,0-1,0-2.1-.07-8.35.4-16.58,1-24.9h2v-12h2v-11h2v-12h2c0-.68,0-1.36,0-2.05a144.55,144.55,0,0,1,1-18.95h2v-11h2v-11h2c0-1.28,0-2.56-.06-3.88A127.61,127.61,0,0,1,262,2012h2v-9h2v-9h2v-9h2c0-1.3,0-2.6-.06-3.94A108.66,108.66,0,0,1,271,1967h2v-8h2v-8h2l1-16h2v-8h2v-8h2v-7h2l1-16h2v-7h2v-7h2c0-1,0-2.1-.06-3.19A38.26,38.26,0,0,1,294,1870h2v-7h2v-7h2v-8h2c0-1,0-2.1-.06-3.19A38.26,38.26,0,0,1,303,1836h2v-7h2v-5h2l1-13h2v-7h2v-5h2v-7h2l1-11h2v-5h2v-7h2l1-11h2v-5h2v-6h2l1-10h2v-7h2v-6h2v-3h2l1-11h2v-5h2v-6h2l1-10h2v-6h2v-3h2v-6h2l1-10h2v-4h2v-5h2l1-9h2v-5h2v-6h2v-3h2l1-9h2v-5h2v-4h2l1-9h2v-5h2v-4h2v-5h2l1-9h2v-3h2v-6h2l1-7h2v-5h2v-4h2l1-9h2v-3h2v-4h2v-3h2l1-9h2v-4h2v-3h2l1-9h2v-4h2v-3h2v-4h2l1-9h2v-3h2v-4h2l1-7h2v-3h2v-4h2v-3h2l1-8h2v-3h2v-4h2l1-9h2v-3h2v-4l4-1,1-8h2v-3h2v-4h2l1-7h2v-3h2v-4h2v-3h2l1-7h2v-4h2v-4l2-1a20.19,20.19,0,0,0,1-4h2v-3h2v-4h2l1-7h2v-2h2v-3h2v-4h2l1-7h2v-2h2v-3h2l1-8h2v-3h2v-2h2v-3h2l1-6h2v-3h2v-4h2l1-5h2v-4h2v-3h2v-2h2l1-7h2v-2h2v-3h2l1-6h2v-3h2v-4h2v-2h2l1-7h2v-2h2v-3h2l1-5h2v-4h2v-2h2v-3h2l1-6h2v-3h2v-2h2l1-5h2v-4h2v-2h2l1-5h2v-3h2v-2h2v-4h2l1-5h2v-2h2v-3h2l1-6h2v-2h2v-3h2v-2h2l1-5h2v-4h2v-2h2l1-5h2v-3h2v-2h2v-2h2l1-5h2v-4h2v-2h2l1-5h2v-2h2v-3h2v-2h2l1-5h2v-2h2v-4a11.55,11.55,0,0,1,3-3h2v-4h2v-2h2l1-5h2v-2h2v-3h2v-2h2l1-5h2v-2h2v-2h2l1-5h2v-2h2v-4l4-1,1-4h2v-3h2v-2h2l1-5h2v-2h2v-2h2v-4a11.55,11.55,0,0,1,3-3h2v-2h2v-3h2l1-4h2v-2h2v-3h2v-2h2l1-4h2v-3h2v-2h2l1-4h2v-3h2v-2h2v-2a17.74,17.74,0,0,1,3-3h2v-4h2v-2a17.74,17.74,0,0,1,3-3h2v-2h2v-3h2l1-4h2v-2l4-1v-4h2l1-4,4-1v-2h2l1-5h2v-2h2v-2h2v-2h2l1-3h2v-2h2v-4a11.55,11.55,0,0,1,3-3h2v-2h2v-2h2v-2l2-1a20.19,20.19,0,0,0,1-4h2v-2l4-1,1-4h2v-2h2v-2l4-1,1-4h2v-3h2v-2h2l1-4h2v-2l4-1v-2h2l1-4,4-1v-2h2l1-5h2v-2h2v-2h2l1-4,4-1v-2h2v-2h2l1-3h2v-2h2v-2h2l1-4,4-1v-2h2v-2h2l1-3h2v-2h2v-2h2l1-4,4-1v-2h2v-2h2l1-3h2v-2h2v-2h2l1-4,4-1v-2h2v-2h2l1-3h2v-2h2v-2h2l1-4,4-1v-2h2l1-4,4-1v-2h2v-2h2l1-3h2v-2h2v-2h2l1-4,6-1v-2h2l1-4,4-1v-2h2l1-4h2v-2l4-1v-2h2v-2h3v-2l4-1,1-4h2v-2h2v-2l4-1,1-4h2v-2l1.94-.38L957,789l1-2h2v-2h2v-2h2v-2a11.55,11.55,0,0,1,3-3h4v-2h2l1-3h2v-2h2v-2h2l1-3h4v-2h2v-2h2l1-4,4-1v-2h3v-2h2v-2l4-1v-2h2v-2h3v-2h2v-2a17.74,17.74,0,0,1,3-3h2v-2h4v-2a17.74,17.74,0,0,1,3-3h2v-2h2v-2h3v-2l4-1v-2h2v-2h3v-2l4-1v-2h2v-2h3v-2h2v-2l4-1v-2h3v-2h2v-2a11.55,11.55,0,0,1,3-3h4v-2h2l1-4,6-1v-2h2v-2h3v-2l4-1,1-4h4v-2l4-1v-2h3v-2h2v-2h2v-2l5-1v-2h2v-2h3v-2l4-1v-2h3v-2h2v-2h4v-2a11.55,11.55,0,0,1,3-3h4v-2h2l1-3h4v-2h2v-2h3v-2h2v-2l5-1v-2h2v-2h4l1-3h4v-2h2v-2h2v-2h3v-2l5-1v-2h2v-2h4v-2l5-1v-2h2v-2h3v-2h2v-2l6-1v-2h3v-2h2v-2l5-1v-2h4v-2h2v-2l5-1v-2h3v-2h2v-2h4l1-3h4v-2h2v-2h3v-2l6-1v-2h3v-2h2v-2h4v-2l5-1v-2h3v-2h2v-2l7-1v-2h2v-2h4v-2h3v-2l6-1v-2h3v-2h2v-2l7-1v-2h2v-2h3v-2h4v-2l5-1v-2h4v-2h3v-2l6-1v-2h3v-2h2v-2l7-1v-2h4v-2h3v-2h2v-2l7-1v-2h4v-2h3v-2l5-1v-2h4v-2h4v-2h3v-2l1.94-.38L1376,496l1-2h4v-2h3v-2l8-1v-2h3v-2h4v-2h3v-2l7-1v-2h4v-2h3v-2l8-1,1-4h4v-2h3v-2l9-1v-2h4v-2h3v-2l8-1v-2h3v-2h4v-2h3v-2l7-1v-2h4v-2h3v-2l9-1v-2h4v-2h3v-2l7-1v-2h6v-2h3v-2h4v-2l9-1v-2h3v-2h4v-2l9-1v-2h3v-2h4v-2h5v-2l7-1v-2h6v-2h3v-2l9-1v-2h5v-2h4v-2h5v-2l9-1v-2h4v-2h5v-2l9-1v-2h3v-2h6v-2h5v-2l9-1v-2h5v-2h4v-2l10-1v-2h6v-2h3v-2h6v-2l10-1v-2h6v-2h5v-2l11-1v-2h3v-2h7v-2l11-1v-2h5v-2h6v-2h5v-2l11-1v-2h7v-2h5v-2l11-1v-2h7v-2h5v-2h7v-2c4.41-1.1,8.48-1.08,13-1v-2h5v-2h7v-2a45.56,45.56,0,0,1,12-1v-2h8v-2h7v-2h7v-2a45.56,45.56,0,0,1,12-1v-2h7v-2h7v-2l16-1v-2h7v-2h8v-2h8v-2l16-1v-2h8v-2h8v-2a124.56,124.56,0,0,1,18-1v-2h9v-2h9v-2a128.36,128.36,0,0,1,19-1v-2h9v-2h11v-2h11v-2a151.87,151.87,0,0,1,21-1v-2h12v-2h11v-2a231.86,231.86,0,0,1,27-1v-2h12v-2h14v-2h16v-2c10.69-.8,21.28-1.13,32-1v-2h20v-2h21v-2c17.35-1,34.63-1.12,52-1v-2h37Z"/><path class="cls-2" d="M3353,1461h6v8h-2v5h-2v3h-2l-1,16h-2v8h-2v3h-2v7h-2l0,1.79a45.53,45.53,0,0,1-1,12.21h-2v7h-2v6h-2l-1,12h-2v7h-2v7h-2l.06,3.56A67.62,67.62,0,0,1,3329,1579h-2v7h-2v3h-2v7h-2l-1,13h-2v9h-2v5h-2l-1,12h-2v9h-2v6h-2v5h-2l0,1.72a78.39,78.39,0,0,1-1,14.28h-2v3h-2v8h-2l.06,3.75A24.51,24.51,0,0,1,3297,1694h-2v7h-2v7h-2v6h-2l-1,16h-2v3h-2v7h-2l0,1.79a45.53,45.53,0,0,1-1,12.21h-2v7h-2v6h-2v9h-2l-1,10h-2v7h-2v6h-2l0,1.72a78.39,78.39,0,0,1-1,14.28h-2v3h-2v7h-2l0,1.72a78.39,78.39,0,0,1-1,14.28h-2v6h-2v5h-2v9h-2l-1,12h-2v6h-2v5h-2l-1,16h-2v5h-2v6h-2v8h-2l.06,3.81A18.31,18.31,0,0,1,3233,1930h-2v7h-2v6h-2l-1,16h-2v5h-2v5h-2v7h-2l-1,15h-2v7h-2v7h-2c0,1.09,0,2.19.06,3.31-.06,3.69-.06,3.69-1.06,6.69h-2v7h-2v9h-2v4h-2l-1,14h-2v5h-2v8h-2c0,1.2,0,2.39.06,3.62A51,51,0,0,1,3194,2076h-2v5h-2v9h-2v7h-2l-1,11h-2v9h-2v3h-2l-1,14h-2v6h-2v9h-2c0,1.09,0,2.19.06,3.31-.06,3.69-.06,3.69-1.06,6.69h-2v7h-2v9h-2v5h-2l-1,13h-2v9h-2v3h-2l-1,15h-2v5h-2v7h-2v9h-2l-1,10h-2v9h-2v7h-2l-1,11h-2v9h-2v5h-2v7h-2l-1,11h-2v7h-2v9h-2l-1,12h-2v8h-2v7h-2v3h-2l-1,13h-2v7h-2v9h-2l-1,10h-2v7h-2v7h-2v8h-2l-1,14h-2v7h-2v3h-2l-1,16h-2v4h-2v7h-2l-1,13h-2v7h-2v8h-2v4h-2l-1,16h-2v5h-2v7h-2l-1,15h-2v3h-2v7h-2v7h-2l-1,15h-2v7h-2v3h-2l-1,16h-2v7h-2v4h-2v7h-2l0,1.86,0,2.45c0,.8,0,1.6,0,2.43-.1,2.26-.1,2.26-1.1,5.26h-2v9h-2v6h-2l-1,12h-2v9h-2v3h-2v9h-2l-1,15h-2v3h-2v7h-2l-1,14h-2v8h-2v5h-2l-1,12h-2v7h-2v7h-2v8h-2l-1,14h-2v3h-2v7h-2l0,1.83c0,1.2,0,1.2,0,2.42,0,.79,0,1.58,0,2.39a25.85,25.85,0,0,1-1.1,6.36h-2v9h-2v5h-2v5h-2l-1,16h-2v6h-2v5h-2l0,1.72a78.39,78.39,0,0,1-1,14.28h-2v5h-2v6h-2v9h-2l-1,10h-2v7h-2v6h-2l-1,16h-2v3h-2v7h-2v9h-2l-1,11h-2v7h-2v5h-5v2h-6v2h-7v2c-4.67,1.21-9.21,1.09-14,1v2h-7v2h-3v2l-16,1v2h-6v2h-7v2l-11,1v2h-8v2h-8v2h-3v2a83.12,83.12,0,0,1-16,1v2h-5v2h-6v2l-16,1v2h-5v2h-5v2h-9v2l-13,1v2h-7v2h-3v2l-14,1v2h-8v2h-7v2h-7v2l-12,1v2h-6v2h-7v2c-4.67,1.21-9.21,1.09-14,1v2h-7v2h-3v2h-8v2l-16,1v2h-3v2h-9v2l-12,1v2h-8v2h-7v2a20,20,0,0,1-7.69,1.06l-2.45,0-1.86,0v2h-5v2h-6v2h-7v2l-16,1v2h-3v2h-7v2l-15,1v2h-7v2h-7v2h-3v2l-15,1v2h-7v2h-5v2l-16,1v2h-4v2h-8v2h-8v2a45.56,45.56,0,0,1-12,1v2h-7v2h-4v2l-16,1v2h-3v2h-7v2h-7v2a80.1,80.1,0,0,1-15,1v2h-7v2h-7v2l-10,1v2h-8v2h-8v2h-6v2l-10,1v2h-7v2h-9v2l-11,1v2h-9v2h-7v2l-11,1v2h-7v2h-5v2h-9v2l-11,1v2h-7v2h-9v2l-10,1v2h-7v2h-9v2h-6v2l-14,1v2h-3v2h-9v2c-4.41,1.1-8.48,1.08-13,1v2h-5v2h-9v2h-7v2a20,20,0,0,1-7.69,1.06l-2.45,0-1.86,0v2h-7v2h-6v2l-14,1v2h-3v2h-9v2h-6v2a45.56,45.56,0,0,1-12,1v2h-9v2h-5v2a66.13,66.13,0,0,1-15,1v2h-7v2h-5v2h-7v2l-11,1v2h-9v2h-7v2c-3.47,1.16-6.36,1.07-10,1v2h-7v2h-8v2l-14,1v2h-7v2h-5v2h-5v2l-16,1v2h-6v2h-7v2a18.31,18.31,0,0,1-7.19,1.06L1906,3247v2h-8v2h-8v2h-3v2l-16,1v2h-5v2h-6v2l-12,1v2h-9v2h-5v2h-6v2a83.12,83.12,0,0,1-16,1v2h-7v2h-3v2a83.12,83.12,0,0,1-16,1v2h-6v2h-7v2h-7v2a20,20,0,0,1-7.69,1.06l-2.45,0-1.86,0v2h-6v2h-7v2c-4.67,1.21-9.21,1.09-14,1v2h-7v2h-4v2l-15,1v2h-6v2h-7v2h-7v2c-4,1.33-7.85,1.07-12,1v2h-8v2h-3v2l-14,1v2h-7v2h-8v2h-7v2l-12,1v2h-5v2h-9v2l-13,1v2h-7v2h-3v2h-7v2l-15,1v2h-7v2h-7v2l-12,1v2h-6v2h-7v2h-5v2l-16,1v2h-4v2h-7v2l-16,1v2h-3v2h-9v2h-4v-6h2v-7h2v-3h2v-9h2c.49-6.44.49-6.44,1-13h2v-7h2v-3h2c.49-6.44.49-6.44,1-13h2v-9h2v-7h2l1-12h2v-4h2v-8h2v-8h2l1-12h2v-5h2v-6h2l0-1.72a78.39,78.39,0,0,1,1-14.28h2v-5h2v-7h2v-5h2l1-15h2v-3h2v-9h2l1-11h2v-9h2v-3h2v-9h2l1-12h2v-7h2v-6h2l1-14h2v-5h2v-6h2v-7h2l1-14h2v-4h2v-7h2l0-1.79a45.53,45.53,0,0,1,1-12.21h2v-7h2v-5h2v-7h2l1-11h2v-9h2v-5h2l1-13h2v-5h2v-9h2c0-1.05,0-2.1-.06-3.19A38.26,38.26,0,0,1,1558,2969h2v-7h2v-6h2v-7h2c0-1.09,0-2.19-.06-3.31.06-3.69.06-3.69,1.06-6.69h2v-8h2v-7h2l1-14h2v-3h2v-8h2v-8h2l1-13h2v-5h2v-7h2l1-11h2v-9h2v-5h2v-7h2l1-11h2v-9h2v-7h2l1-12h2v-6h2v-7h2v-7h2l1-12h2v-6h2v-7h2c0-1.09,0-2.19-.06-3.31.06-3.69.06-3.69,1.06-6.69h2v-7h2v-6h2l0-1.72a78.39,78.39,0,0,1,1-14.28h2v-5h2v-7h2v-4h2l1-16h2v-5h2v-7h2l1-11h2v-9h2v-7h2v-5h2c0-1.05,0-2.1-.06-3.19A38.26,38.26,0,0,1,1654,2623h2v-8h2v-7h2l1-12h2v-5h2v-8h2v-7h2l1-10h2v-6h2v-8h2c0-1.22,0-2.43-.06-3.69A36.56,36.56,0,0,1,1677,2539h2v-7h2v-4h2v-8h2c0-1.22,0-2.43-.06-3.69A36.56,36.56,0,0,1,1686,2507h2v-7h2v-5h2l1-13h2v-9h2v-5h2v-7h2l1-12h2v-8h2v-3h2l0-1.79a45.53,45.53,0,0,1,1-12.21h2v-6h2v-9h2l1-12h2v-7h2v-5h2v-7h2l1-13h2v-7h2v-5h2l1-13h2v-7h2v-7h2v-4h2l1-15h2v-6h2v-7h2l1-12h2v-6h2v-5h2v-9h2l1-11h2v-7h2v-5h2l0-1.72a78.39,78.39,0,0,1,1-14.28h2v-5h2v-7h2v-6h2l1-14h2v-3h2v-8h2l1-14h2v-7h2v-3h2v-7h2l0-1.76a60.64,60.64,0,0,1,1-13.24h2v-7h2v-5h2l1-13h2v-5h2v-9h2l1-12h2v-6h2v-5h2v-9h2c0-1.58,0-1.58-.06-3.19A38.26,38.26,0,0,1,1812,2051h2v-7h2v-6h2l1-14h2v-3h2v-9h2v-6h2l1-14h2v-3h2v-7h2l1-15h2v-7h2v-5h2v-7h2l1-11h2v-9h2v-5h2c0-1.58,0-1.58-.06-3.19A38.26,38.26,0,0,1,1851,1911h2v-6h2v-5h2v-2h5v-2l12-1v-2h9v-2h4v-2c4.67-1.21,9.21-1.09,14-1v-2h5v-2h6v-2h5v-2c4.41-1.1,8.48-1.08,13-1v-2h7v-2h7v-2c3.47-1.16,6.36-1.07,10-1v-2h7v-2h4v-2h7v-2c4.67-1.21,9.21-1.09,14-1v-2h6v-2h5v-2l11-1v-2h7v-2h5v-2h9v-2l11-1v-2h5v-2h5v-2l14-1v-2h8v-2h3v-2h7v-2l14-1v-2h4v-2h5v-2l14-1v-2h6v-2h5v-2c4.41-1.1,8.48-1.08,13-1v-2h7v-2h7v-2h3v-2l13-1v-2h5v-2h7v-2l14-1v-2h6v-2h5v-2h5v-2l13-1v-2h5v-2h9v-2l11-1v-2h5v-2h5v-2h7v-2l15-1v-2h3v-2h7v-2l14-1v-2h4v-2h5v-2h9v-2l11-1v-2h5v-2h6v-2l14-1v-2h7v-2h3v-2l13-1v-2h5v-2h7v-2h7v-2l11-1v-2h7v-2h5v-2l13-1v-2h5v-2h9v-2h5v-2l11-1v-2h5v-2h7v-2l15-1v-2h3v-2h7v-2h7v-2c3.67-1.18,7.17-1.07,11-1v-2h5v-2h9v-2l11-1v-2h5v-2h6v-2h7v-2c4.67-1.21,9.21-1.09,14-1v-2h3v-2h8v-2l10-1v-2h7v-2h7v-2h7v-2c3.67-1.18,7.17-1.07,11-1v-2h5v-2h9v-2l9-1v-2h9v-2h5v-2l11-1v-2h5v-2h7v-2h8v-2l10-1v-2h7v-2h7v-2c3.67-1.18,7.17-1.07,11-1v-2h5v-2h9v-2h6v-2l10-1v-2h6v-2h7v-2c4.67-1.21,9.21-1.09,14-1v-2h3v-2h8v-2h5v-2a45.56,45.56,0,0,1,12-1v-2h7v-2h8v-2c3.47-1.16,6.36-1.07,10-1v-2h5v-2h9v-2h4v-2c4.67-1.21,9.21-1.09,14-1v-2h5v-2h6v-2l10-1v-2h8v-2h7v-2h7v-2c3.47-1.16,6.36-1.07,10-1v-2h7v-2h4v-2l12-1v-2h9v-2h6v-2l10-1v-2h6v-2h7v-2h5v-2l14-1v-2h6v-2h5v-2a45.56,45.56,0,0,1,12-1v-2h6v-2h9v-2h3v-2l14-1v-2h6v-2h5v-2c4.67-1.21,9.21-1.09,14-1v-2h5v-2h6v-2h5v-2c4.41-1.1,8.48-1.08,13-1v-2h5v-2h9v-2c3.47-1.16,6.36-1.07,10-1v-2h6v-2h5v-2h7v-2a63.8,63.8,0,0,1,14-1v-2h6v-2h5v-2l11-1v-2h7v-2h5v-2l14-1v-2h6v-2h5v-2h5v-2l13-1v-2h9v-2h3v-2l14-1v-2h6v-2h5v-2h5v-2l15-1v-2h5v-2h5v-2l13-1v-2h5v-2h9v-2h3Z"/><path class="cls-1" d="M2380,2088h52v2h12v2l3.25,0,4.31,0,2.14,0A77,77,0,0,1,2467,2093v2h9v2h7v2h9v2l9,1v2h6v2h7v2l9,1v2h5v2h3v2h4v2l9,1v2h3v2h4v2l7,1v2h4l1,4h4v2l5,1v2h4v2h3v2l6,1,1,4h4v2h2v2l5,1v2h2v2h3v2l4,1v2h3v2h2v2l4,1v2h2v2h3v2h2v2l3,1v2h2v2h2v2l4,1,1,4h2v2h2v2l3,1v2h2v2h2v2l4,1,1,4h2v4l4,1,1,4h2v2h2v3h2v2h2l1,5h2v2h2v2h2l1,5h2v4h2v2h2v3h2l1,5h2v4h2v2h2l1,5h2v4h2v3h2l1,7h2v4h2v3h2v4h2l1,9h2v3h2v6h2l1,9h2v5h2v5h2v5h2l1,13h2v11h2v5h2a217.35,217.35,0,0,1,1,25h2v18h2v51h-2v12h-2c0,1.05,0,2.1,0,3.18a145.92,145.92,0,0,1-1,21.82h-2v7h-2v7h-2l0,1.76a60.64,60.64,0,0,1-1,13.24h-2v3h-2v6h-2v7h-2l-1,9h-2v5h-2v3h-2l-1,9h-2v4h-2v3h-2v4h-2l-1,7h-2v4l-4,1-1,7h-2v2h-2v4h-2l-1,5h-2v4l-4,1v4h-2l-1,5h-2v2h-2v2h-2l-1,5h-2v2h-2v4l-4,1-1,4h-2v2h-2v3h-2l-1,4h-2v2l-4,1v2h-2l-1,4-4,1v2h-2l-1,4-4,1v2h-2v2h-2l-1,4-4,1v2h-3v2h-2v2l-4,1v2h-2v2h-3v2h-2v2l-5,1v2h-2v2h-2v2l-5,1v2h-4l-1,4h-4v2l-5,1v2h-4v2h-2v2l-7,1-1,4h-4v2h-4v2l-7,1v2h-3v2h-4v2l-9,1v2h-3v2h-5v2h-6v2c-3.47,1.16-6.36,1.07-10,1v2h-6v2h-5v2a28.09,28.09,0,0,1-8.75,1.06l-2.42,0-1.83,0v2h-7v2h-9v2a84.88,84.88,0,0,1-15.44,1.06h-2.21L2444,2741v2h-12v2h-52v-2h-17v-2l-2.42,0a207.61,207.61,0,0,1-22.58-1v-2h-5v-2h-11v-2l-13-1v-2h-5v-2h-5v-2l-11-1v-2h-3v-2h-6v-2h-3v-2l-9-1v-2h-4v-2h-3v-2l-7-1v-2h-4v-2h-3v-2h-4v-2l-5-1v-2h-2v-2h-4v-2l-5-1v-2h-4l-1-4h-4v-2l-5-1v-2h-2v-2h-2v-2l-5-1v-2h-2v-2h-3v-2h-2v-2l-4-1-1-4h-4v-2l-4-1-1-4h-2v-2h-2v-2l-3-1v-2h-2v-2h-2v-2l-4-1-1-4h-2v-2l-4-1-1-4h-2v-2h-2v-3h-2v-2h-2l-1-4-4-1v-4h-2l-1-4h-2v-3h-2v-2h-2v-2h-2l-1-5h-2v-4l-4-1-1-6h-2v-3h-2v-4h-2v-2h-2c-.49-3.46-.49-3.46-1-7l-4-1v-4h-2c-.49-3.46-.49-3.46-1-7h-2v-4h-2v-3h-2l-1-9h-2v-4h-2v-3h-2v-5h-2l-1-9h-2v-7h-2v-6h-2l-1-9h-2v-9h-2v-7h-2v-7h-2c-1.19-8.34-1.09-16.59-1-25h-2v-12h-2v-51h2v-18h2c0-.8,0-1.6,0-2.42a207.61,207.61,0,0,1,1-22.58h2v-5h2v-11h2v-4h2l0-1.79a45.53,45.53,0,0,1,1-12.21h2v-5h2v-5h2l1-9h2v-6h2v-3h2v-4h2l1-9h2v-3h2v-4h2l1-7h2v-3h2v-4h2l1-5h2v-2h2v-4h2v-3h2l1-5h2v-2h2v-4h2l1-5h2v-2h2v-2h2v-3h2l1-4h2v-3h2v-2h2c.49-2,.49-2,1-4l4-1v-4h2v-2h2l1-3h2v-2h2v-2h2l1-3h2v-2h2v-2h2v-2h2l1-3h2v-2h2v-2h2l1-3h2v-2h2v-2h4c.49-2,.49-2,1-4l4-1v-2h2v-2h3v-2l4-1v-2h3v-2h2v-2l5-1v-2h2v-2h4l1-4,6-1v-2h3v-2h4v-2l5-1v-2h2v-2h4v-2h3v-2l7-1v-2h4v-2h3v-2l9-1v-2h4v-2h3v-2h6v-2l8-1v-2h6v-2h5v-2c4.67-1.21,9.21-1.09,14-1v-2h4v-2h11v-2h5v-2a217.35,217.35,0,0,1,25-1v-2h17Z"/><path class="cls-3" d="M3353,1461h6v8h-2v-6h-4Z"/></svg>

