<svg id="Layer_1" data-name="Layer 1" xmlns="http://www.w3.org/2000/svg" viewBox="0 0 4320 4320"><defs><style>.cls-1{fill:#ff4b4b;}.cls-2{fill:#fffefe;}.cls-3{fill:#ffbaba;}</style></defs><path class="cls-1" d="M2113.39,1013.75h94.27v1h19v1.06h1.16c8.58-.06,17.13.06,25.7.52v1.06h11.06v1h10.53v1h1.55c5.13,0,10.2.17,15.31.53v1h8.42v1.06h7.37v1.05H2314v1h1.51a114.65,114.65,0,0,1,12.71.53v1h5.8v1.06h6.32v1h1a90.23,90.23,0,0,1,10.53.53v1h5.27v1H2363v1.06h4.74v1h1a63.3,63.3,0,0,1,9,.53v1h4.74v1h4.74v1.06l2.07,0a59.32,59.32,0,0,1,7.41.56V1038h4.74v1h3.68v1h.91a41.12,41.12,0,0,1,7.52.53v1.05h4.74v1.06H2422v1h3.68v1l8.43.53v1.05h3.69v1.06h3.68v1l1.68,0a19.57,19.57,0,0,1,4.64.56v1h3.69v1.05h4.21v1.06h3.69v1l1.68,0a19.64,19.64,0,0,1,4.64.56v1h3.69v1.05h3.16v1.06l1.68,0a20.73,20.73,0,0,1,4.64.56v1.06h3.68v1h2.64v1h3.68v1.05l5.79.53v1h2.64v1.06h4.21v1l5.27.53v1H2510v1h2.63v1.06h2.63v1l6.85.53v1h2.63v1h1.58v1.06l5.8.52v1.06h2.63v1.05h3.16v1l5.27.53v1h3.16v1.06h1.58v1.05H2551v1l5.26.53v1h2.11v1.06H2561v1.05l4.74.53v1h2.64v1h3.16v1.06h1.58v1.05l4.74.53v1h2.63v1h2.11v1.06l4.74.52v1.06H2590v1h2.1v1h2.64v1.06l4.74.52v1.06h2.1v1h2.64v1l3.68.53v1h2.64v1.06h2.1v1h1.58v1l4.74.53v1h2.11v1.06h1.58v1l4.74.53v1h2.11v1h1.58v1.06h3.16v1.05l3.68.53v1h1.58v1h2.11v1.06l4.74.52v1.06h1.58v1h2.11v1l3.68.53v1h1.58v1.06h2.11v1h2.11v1l3.68.53v1h1.58v1.06h2.11v1l4.74.53v1h1.58v1h2.11v1.06h1.05v1l3.69.53v1h1.58v1h2.1v1.06l3.69.52v1.06H2689v1h2.1v1h2.11v1.06l3.69.52v1.06h1.58v1h2.1l.53,1a10.19,10.19,0,0,0,2.11.53v1.05h2.1v1.06h1.58v1H2709v1l2.63.53v1.05h2.11V1156h1.58v1l3.69.52v1.06h1.05v1.05h2.11v1h1.58v1.06l3.68.52v1.06h1.06v1h2.1v1.05l2.64.53v1h1.58v1.06h2.1v1l2.64.53v1h2.1v1h1.58v1.06h1.06v1l3.68.53v1h1.06v1h2.1v1.06l2.64.52v1.06h1.58v1.05h2.1v1h1.06v1.06l3.68.52v1.06h1.06v1.05h1.58v1l3.16.53v1h1.58v1.06h1.05v1.05h1.58v1l3.16.53v1H2777v1.06H2778v1.05l2.64.53v1h2.1v1h1v1.06h1.58v1.05l3.16.53c.26,1,.26,1,.53,2.1h2.11v1.06l2.63.52v1.06h1v1H2797l.53,1a10.26,10.26,0,0,0,2.1.53v1h1.06v1.06h1.58v1h1.05v1l2.63.53v1H2808v1.06h1.05v1l2.64.53v1h2.1c.26,1,.26,1,.53,2.11h1v1.05l2.64.53v1h2.1v1h1.06v1.06l2.63.52v1.06h1v1h1.58v1h1.06v1.06l2.63.52v1.06h1.05v1h2.11v1l1.58.53v1H2837v1.06h1v1h1.58v1l2.11.53v1h1.58v1.06h1.05v1l2.63.53v1h1.06v1h1v1.06h2.11a6.09,6.09,0,0,1,1.58,1.58v1h2.1c.26,1,.26,1,.53,2.11l2.11.52v1.06h2.1c.26,1,.26,1,.53,2.1l3.16.53c.26,1.05.26,1.05.53,2.1h1.05V1256H2867v1l1.58.53v1.05h1v1h2.11a6.59,6.59,0,0,1,1.58,1.58v1.06h1.05v1.05H2876v1H2877v1.06l2.11.52v1.06h1.58v1h1.05v1.05l2.11.53v1h1.58v1.06h1.05v1h1v1.05l1.58.53v1h2.11v1.06h1.05a9.09,9.09,0,0,1,1.58,1.58v1h1.06v1h2.1c.26,1.06.26,1.06.53,2.11l2.11.53v1.05h1.05v1h1.58V1286l2.11.52v1.06h1l.53,2.1h1.05v1.06l2.63.52v1.06h1.06v1.05h1.05v1l1.58.53v1h1.05v1.06h2.11v1.05l1.58.53v1h1v1h1.06v1.06h1.05l.53,1.05a10.77,10.77,0,0,0,2.1.53v1H2925v1H2926a9.45,9.45,0,0,1,1.58,1.58v1.06h1v1h1.06l.52,2.11,2.11.52v1.06h2.11l.52,2.1,2.11.53v1h1l.53,2.11h1v1l2.11.53v1h1.05l.53,2.11,3.16.53.53,2.1h1.05v1.06h1v1.05l2.11.53.53,2.1h1v1.06l2.11.52.52,2.11h1.06v1l2.1.53.53,2.11h1v1h1.06v1l2.1.53.53,2.11H2965v1l2.11.53.53,2.1h1.05v1.06h1v1l2.11.52.52,2.11h1.06v1.05l2.1.53.53,2.11h1.05v1h1.06v1l2.1.53.53,2.11h1v1l2.11.53.53,2.1h1.05v1.06h1.05v1l2.11.53.53,2.1h1.05v1.06l2.11.52.52,2.11H2994v1.05H2995V1374h1.05v1.58h1.06l.52,2.1,2.11.53v1h1.05l.53,2.11,2.11.53v1h1.05l.53,2.11h1v1h1.05v1.58h1.06v1h1a9.84,9.84,0,0,1,1.58,1.58v1.06h1v1.05h1.06l.52,2.11,2.11.52v1.06h1.05v2.1l1.58.53v1h1.06v1.06h1.05v1.05h1a5.94,5.94,0,0,1,1.58,1.58v2.11H3024v1.05l2.1.53.53,2.1h1.05v1.06h1.06v1h1.05l.53,2.63h1.05v1.06l2.11.52v1.06h1.05l.53,3.16,2.1.52v1.06h1.06l.52,2.1h1.06v1.58h1.05v1.06h1a9.09,9.09,0,0,1,1.58,1.58v1h1.06v2.11h1v1.05l1.58.53v1h1.05v1h1.06v1.58h1.05l.53,2.11h1.05v1h1v1.58H3054v1.06H3055l.53,2.1h1v1.58h1.05v1.05h1.06l.52,2.11h1.06v1.58h1.05v1.05h1v1.06l1.58.52v2.11h1.06v1.05h1v1.06h1.05l.53,2.63h1.05v1h1.05v1.58h1.06v1.06h1a5.94,5.94,0,0,1,1.58,1.58v2.1h1.05v1.06h1.06l.52,2.63h1.06v1h1.05V1473h1.05v1.58h1.06l.52,2.1h1.06v1.58h1v1.06H3084l.53,2.63h1v1h1.06v2.11h1.05a5.94,5.94,0,0,1,1.58,1.58v2.11h1.05v1l2.11.53.53,3.16H3094v1.58h1v1.05h1.06l.52,2.63h1.06v1.06h1.05v2.1h1.05V1503h1.06l.52,2.63h1.06v1h1v1.58h1.05l.53,2.64h1v1h1.06v2.11h1.05v1h1.05l.53,2.63h1.05v1.58h1.06v1.06h1l.53,3.16h1.05v1.58h1v1h1.06v1.58h1.05l.53,3.16h1.05v1h1.05v1.58h1.06l.52,2.64H3123v1H3124v2.1h1v1.06h1.06l.52,2.63h1.06v1.58h1.05v2.11h1.05l.53,2.63h1.05v1.05h1.06v2.11h1.05l.53,2.63h1.05v1.58h1v1.06h1.06v2.1h1.05l.53,2.64h1v2.1h1.05v1.58h1.06l.52,3.16h1.06v1.58h1.05V1572h1v1.58h1.06l.52,3.16h1.06v1.58h1v2.1h1.05l.53,2.64h1.05v2.1H3153v1.58h1.05v1.06h1l.53,3.68h1v1.06h1.06v1.58h1.05l.53,4.21h1v1.58h1.05v1h1.06v1.58h1.05l.52,4.22h1.06v1.58h1v1.05h1.05l.53,3.69h1.05v2.1h1.06v1.58h1.05c.06.34.13.68.2,1s.22.72.33,1.09l1.05.53v2.1h1.05v2.11h1.06v1.58h1l.53,3.69h1v2.1h1.05v1.58h1.06l.52,3.69h1.06v2.1H3182v1.58H3183V1642h1.06c.06.34.13.68.2,1s.21.72.32,1.09l1.06.52v2.11h1v1.58h1.05l.53,4.74h1v2.11h1.06v1.58h1.05v2.1h1c.27,1.83.27,1.83.53,3.69h1.05v2.11h1.06v1.58h1c.26,1.82.26,1.82.53,3.68h1.05v2.11h1v1.58h1.06v3.16h1.05l.53,3.69h1.05v1.58h1.05v2.1h1.06c.26,2.35.26,2.35.52,4.74h1.06v1.58h1v2.11h1.05v1.58h1.06c.26,2.34.26,2.34.52,4.74h1.06V1701H3212v1.58H3213c.27,2.34.27,2.34.53,4.74h1.05v2.1h1.06v2.64h1c.26,1.82.26,1.82.53,3.68h1.05v3.16h1v1.58h1.06v2.64h1.05c.26,2.34.26,2.34.53,4.74H3223v2.1h1.05v2.63h1.06c.26,2.35.26,2.35.52,4.74h1.06v2.11h1.05v2.63h1v2.11h1.06l.52,4.21h1.06v3.16h1.05v2.64h1.05c.27,2.34.27,2.34.53,4.74h1.05v2.63h1.06v2.11h1.05v2.63h1l.53,5.79h1v1.58H3241v3.16H3242l.53,5.27h1v3.16h1.05v2.63h1.06v2.64h1c.26,2.34.26,2.34.53,4.74h1.05V1799h1v3.16h1.06l.52,5.27H3252v3.16h1v2.63h1.05v2.64h1.06c.26,3.39.26,3.39.52,6.84h1.06v2.64h1.05V1828h1c.26,3.39.26,3.39.53,6.84h1v2.64h1.05v3.68h1.06c.26,3.4.26,3.4.52,6.85h1.06v2.63h1.05v3.69h1v2.63h1.06a41.81,41.81,0,0,1,.52,7.9h1.06v3.69h1v3.69H3271a23.54,23.54,0,0,1,.53,6.32h1.05v3.68h1.06v3.69h1.05v4.74h1c.27,3.65.27,3.65.53,7.37h1.05v4.22h1.06v4.21h1c.26,4.17.26,4.17.53,8.43h1v4.21H3282v4.21h1.06V1928h1.05a65.28,65.28,0,0,1,.53,9.48h1.05v4.74h1.05V1947h1.06a74.35,74.35,0,0,1,.52,10h1.06v5.79h1v5.79h1.05v5.27h1.06a96.05,96.05,0,0,1,.52,12.11h1.06v5.8h1.05v6.32h1c.37,4.74.61,9.44.53,14.22h1.05v7.37h1.06v8.42h1c.42,5.63.6,11.21.53,16.86h1.05v10.53h1v11.06h1.06v12.11h1.05c.53,11.59.59,23.18.53,34.76h1.05v93.22h-1.05v1.58c.05,11.06,0,22.12-.53,33.18h-1.05v12.11h-1.06v11.06h-1v10.53h-1.05v1.55c0,5.13-.17,10.2-.53,15.31h-1v8.42h-1.06v7.37h-1.05V2309c0,4.35-.18,8.65-.53,13h-1v6.32h-1.05v5.8h-1.06v1.18a90.7,90.7,0,0,1-.52,10.93h-1.06V2352h-1.05v5.27h-1V2363h-1.06c0,.68,0,1.35,0,2.05a68.39,68.39,0,0,1-.56,8h-1.06v4.74h-1.05v4.74h-1.05c0,.68,0,1.37,0,2.07a57.34,57.34,0,0,1-.56,7.41h-1.05v4.74H3282v4.74H3281v3.68h-1v.91a41.12,41.12,0,0,1-.53,7.52h-1v4.74h-1.06V2422h-1.05l-.53,7.37h-1v4.74h-1.05v3.69h-1.06v3.68h-1.05c0,.56,0,1.11,0,1.68a19.57,19.57,0,0,1-.56,4.64h-1.05V2452h-1v3.68h-1.06l-.52,7.38h-1.06v2.63h-1v3.69h-1.05v3.16h-1.06c0,.55,0,1.1,0,1.68a20.73,20.73,0,0,1-.56,4.64h-1.06v3.68h-1.05v2.64h-1c0,.64,0,1.28,0,1.94a19.25,19.25,0,0,1-.56,4.9h-1v2.63h-1.05v2.64h-1.06c0,.64,0,1.28,0,1.94a19.24,19.24,0,0,1-.55,4.9h-1.06v2.64h-1.05V2510h-1v2.63H3251l-.52,5.79h-1.06V2521h-1v2.63h-1.05l-.53,5.79h-1v2.64h-1.06v3.16h-1.05v2.63h-1l-.53,5.27H3241v3.16h-1.06v1.58h-1l-.53,5.79h-1v2.63h-1.05v2.11h-1.06V2561h-1.05c-.26,2.35-.26,2.35-.53,4.74h-1.05v2.64h-1.05v3.16h-1.06c-.26,2.34-.26,2.34-.52,4.74h-1.06v1.58h-1v3.16h-1.05v1.58h-1.06c-.26,2.34-.26,2.34-.52,4.74h-1.06V2590H3223v2.1H3222c-.27,2.35-.27,2.35-.53,4.74h-1.05v2.64h-1.06v2.1h-1v2.64h-1.05l-.53,3.68h-1v2.64h-1.06v2.1h-1.05c-.26,2.35-.26,2.35-.53,4.74H3212V2619h-1.05v2.11h-1.06c-.26,2.35-.26,2.35-.52,4.74h-1.06v1.58h-1.05v2.11h-1v1.58h-1.06c-.26,2.35-.26,2.35-.52,4.74h-1.06v2.1h-1.05v1.58h-1.05l-.53,3.69h-1.05v3.16h-1.06v1.58h-1v2.11h-1.05l-.53,3.68h-1v2.11h-1.06v1.58H3193l-.53,3.69h-1v2.1h-1.05v1.58h-1.06v2.11h-1c-.26,2.35-.26,2.35-.53,4.74h-1.05v1.58h-1v2.11h-1.06l-.52,2.63H3183v2.11H3182v1.58h-1.05v2.1h-1.06l-.52,3.69h-1.06V2689h-1.05v2.1h-1l-.53,3.69h-1v2.11h-1.06v1.58h-1.05v2.1h-1.05l-.53,2.64h-1.05v2.1h-1.06v1.58h-1.05l-.53,3.69h-1.05v1h-1v2.11h-1.06l-.52,3.69h-1.05V2719h-1.06v1.05h-1.05v2.11h-1l-.53,3.68h-1.05v1.58h-1.06v1.06h-1l-.53,3.68h-1v1.06H3153v1.58h-1.06v2.1h-1.05l-.53,2.64h-1.05v2.1h-1v1.58h-1.06l-.52,3.16h-1.06V2748h-1v1.06h-1.05v2.1h-1.06l-.52,2.64h-1.06v1.58h-1.05v2.1h-1l-.53,2.64h-1.05v2.1h-1.06v1.06h-1v1.58H3134l-.53,3.16h-1.05v1.58h-1.06v1.05h-1.05l-.53,2.63h-1.05v2.11h-1.05V2777h-1.06l-.52,3.16-2.11.53v2.1H3123v1h-1.06l-.52,2.64h-1.06v2.1l-2.1.53-.53,3.16h-1.05v1.58h-1.06v1h-1V2797l-1.05.53a10.26,10.26,0,0,0-.53,2.1h-1v1.06h-1.06v1.58h-1.05l-.53,3.16-2.1.52V2808h-1.06v1.05h-1l-.53,2.64h-1.05v2.1l-2.11.53-.52,3.16-2.11.53v2.1h-1.05v1.06h-1.06l-.52,2.63h-1.06v1h-1v1.58H3093l-.53,3.16h-1v1.06l-2.11.52v2.11h-1.05l-.53,1.58h-1.05V2837h-1.06v1h-1l-.53,2.63H3083v1.06h-1v1.58h-1.06l-.52,2.1h-1.06V2847h-1.05v1.06h-1.05v1h-1.06l-.52,2.63h-1.06v1.06h-1.05v2.1a5.94,5.94,0,0,1-1.58,1.58h-1v1.06h-1.06v2.1l-2.1.53-.53,3.16-2.1.53v1.05H3064l-.52,3.16-2.11.53v1h-1.05v2.11a6.41,6.41,0,0,1-1.58,1.58h-1.06v1.05h-1.05v2.1a6.09,6.09,0,0,1-1.58,1.58H3054v1.06h-1.06v1.58h-1v1.05h-1.05l-.53,2.11h-1.05v1.58h-1.06v1.05h-1.05l-.53,2.11-2.1.52v2.11h-1.06v1.05a9.09,9.09,0,0,1-1.58,1.58h-1v1.06h-1.05v2.1a6.09,6.09,0,0,1-1.58,1.58h-1.06v1.06h-1.05v1.05h-1l-.53,2.63h-1.05v1.06h-1.06v1l-2.1.53-.53,3.16-2.11.52v1.06h-1.05l-.53,2.1H3025v1.06l-2.11.52v2.11h-1l-.53,1.58h-1v1h-1.05v1.06h-1.06l-.52,2.1h-1.06v1.58h-1.05V2925h-1.05V2926a9.45,9.45,0,0,1-1.58,1.58h-1.06v1h-1v1.06a9.84,9.84,0,0,1-1.58,1.58h-1v1h-1.06v2.11l-2.1.52-.53,2.11h-1.05v1l-2.11.53-.53,2.11h-1.05v1h-1v1.05a9.09,9.09,0,0,1-1.58,1.58h-1.06v2.11l-2.1.53v1.05h-1.06l-.52,2.11h-1.06v1.05l-2.1.53-.53,2.1h-1V2955l-2.11.52v1.06h-1.05l-.53,2.1h-1.05v1.06l-2.11.52-.53,2.11h-1.05v1.05l-2.11.53V2965H2976l-.53,2.11h-1.05v1l-2.11.53-.52,2.11h-1v1l-2.11.52v1.06h-1.05l-.53,2.1-2.11.53v1.05h-1.05l-.53,2.11h-1.05v1.05l-2.11.53v1h-1l-.53,2.11-2.1.53v1.05h-1.06l-.52,2.11h-1.06v1l-2.1.53-.53,2.1h-1.05v1.06l-2.11.52V2994h-1.05l-.53,2.1h-2.11v1.06a9.09,9.09,0,0,1-1.58,1.58h-1.05v1h-1v1.05l-2.11.53-.53,2.11h-1v1.05H2936v1.05a6.09,6.09,0,0,1-1.58,1.58h-2.11v1.06h-1v1a9.84,9.84,0,0,1-1.58,1.58h-1.06v1h-1v1.06a9.45,9.45,0,0,1-1.58,1.58H2925v1.05h-1.06v1.05h-2.1c-.26.79-.26.79-.53,1.58h-1.05v1.06h-1.06v1.05h-1l-.53,1.58h-1v1h-2.11V3024h-1.05l-.53,2.1-2.1.53v1.05h-1.06l-.52,2.11-3.16.53-.53,2.1h-1v1.06h-1.06v1.05l-2.63.53v1h-1.05v1.05h-1.06v1.06a6.09,6.09,0,0,1-1.58,1.58h-2.1v1.05h-1.06v1h-1.05c-.26.79-.26.79-.53,1.58h-1.05v1.06h-2.11l-.52,2.1-2.11.53v1.05h-1.05v1.06h-1.58v1.05h-1.06v1l-2.1.53v1h-1.58V3054h-1.06V3055l-2.1.53v1h-1.58v1.05h-1.05v1.06a6.41,6.41,0,0,1-1.58,1.58h-2.11v1.05h-1l-.53,2.11-3.16.52v1.06h-1.05l-.53,2.1-3.16.53-.53,2.1h-2.1v1.06h-1.06v1a5.94,5.94,0,0,1-1.58,1.58h-2.1v1.05h-1.06l-.52,1.58h-2.11v1.06h-1v1.05H2847v1.05h-1.58v1.06l-2.1.52v1.06h-1.58v1h-1.06V3084l-2.63.53v1h-1v1.06h-2.11l-.53,2.1-3.16.53v1.05h-1.05l-.53,2.11-3.16.53V3094h-1.58v1h-1v1.06h-1.05v1.05l-2.64.53v1.05h-2.1l-.53,2.11-3.16.52-.53,2.11h-2.1v1.05l-2.64.53v1H2808v1.06h-2.11l-.52,2.1-3.16.53v1.05h-1.58v1.06h-1.06v1l-1,.2-1.08.33-.53,1.05h-2.11v1h-1v1.06h-1.58v1.05l-3.16.53-.53,2.1h-2.1v1.06l-2.64.52V3123h-1V3124h-2.1l-.53,2.11-3.16.52v1.06h-1.58v1.05h-2.11v1.05l-2.63.53v1.05h-1.05v1.06H2768v1.05h-2.11v1l-2.63.53v1h-1.06v1.06h-2.1v1.05l-2.64.53v1h-2.1v1.05h-1.58v1.06l-2.64.52v1.06h-2.1v1.05H2748v1h-1.58v1.06l-3.16.52v1.06h-1.58v1h-2.1l-.53,1.58h-2.11v1.05h-2.1V3153h-1.58v1.05h-1.06v1l-3.68.53v1h-1.06v1.06h-1.58v1.05l-3.68.53v1h-2.11v1.05H2719v1.06h-1.58v1.05l-3.69.52v1.06h-2.11v1h-1v1.05l-3.69.53v1.05h-1.58v1.06h-2.1v1.05h-2.11l-.53,1.58h-2.1v1.05h-1.58v1.06h-2.11v1l-3.69.53v1H2689v1.05h-1.58v1.06h-2.11v1.05l-3.68.53V3182h-1.58V3183H2678v1.06l-2.63.52v1.06h-2.11v1h-1.58v1.05l-4.74.53v1h-2.11v1.06h-1.58v1.05h-2.1v1l-3.69.53v1.05h-2.11v1.06h-1.58v1l-3.68.53v1.05h-2.11v1h-1.58v1.06h-3.16v1.05l-3.69.53v1.05h-1.58v1.05h-2.1v1.06l-4.74.52v1.06h-1.58v1h-2.11v1.05h-1.58v1.06l-4.74.52v1.06H2619V3212h-1.58V3213l-4.74.53v1.05h-2.1v1.06h-2.64v1h-2.1v1.05l-4.22.53v1h-2.1v1.06h-2.64v1.05l-4.74.53V3223H2590v1.05h-2.63v1.06h-2.11v1l-4.74.53v1.05h-2.63v1h-1.58v1.06l-4.74.52v1.06h-3.16v1.05h-2.64v1.05l-4.74.53v1.05h-2.63v1.06h-2.11v1.05h-2.63v1l-5.79.53v1h-1.58V3241h-3.16V3242l-5.27.53v1h-3.16v1.05h-2.63v1.06h-2.64v1l-4.74.53v1.05H2521v1h-2.64v1.06l-5.79.52V3252H2510v1h-3.16v1.05h-2.64v1.06a25.71,25.71,0,0,1-6.84.52v1.06h-2.64v1.05h-2.63v1l-6.84.53v1h-2.64v1.05h-3.68v1.06h-2.64v1.05l-6.84.53v1.05h-3.69v1h-2.63v1.06l-7.38.52v1.06h-4.21v1h-3.69V3271a23.54,23.54,0,0,1-6.32.53v1.05h-3.68v1.06h-3.69v1.05h-4.74v1l-7.37.53v1.05h-3.69v1.06h-4.74v1a44,44,0,0,1-8.43.53v1h-3.68V3282h-4.74v1.06H2392v1.05a65.28,65.28,0,0,1-9.48.53v1.05h-4.74v1.05H2373v1.06a74.35,74.35,0,0,1-10,.52v1.06h-5.79v1H2352v1.05h-5.79v1.06a96.05,96.05,0,0,1-12.11.52v1.06h-5.8v1.05h-6.32v1c-4.74.37-9.44.61-14.22.53v1.05h-7.37v1.06h-8.42v1h-8.43V3301c-6.32.5-12.61.59-19,.53v1h-11.06v1.06h-12.11v1.05c-11.59.53-23.18.58-34.76.53v1.05h-93.22v-1.05h-1.55c-11.06.05-22.12,0-33.21-.53v-1.05h-12.11v-1.06h-11.06v-1h-2c-5.67,0-11.29-.11-16.95-.53v-1.05h-8.43v-1h-8.42v-1.06h-7.37v-1.05h-1.11c-4.4,0-8.73-.21-13.11-.53v-1h-6.32v-1.05h-5.8v-1.06h-1.18a90.7,90.7,0,0,1-10.93-.52v-1.06h-5.27v-1.05h-5.79v-1H1957v-1.06l-2,0a68.39,68.39,0,0,1-8-.56v-1.06h-4.74v-1.05h-4.74v-1.05l-2.07,0a57.34,57.34,0,0,1-7.41-.56v-1.05h-4.74V3282h-4.21V3281h-4.21v-1l-8.43-.53v-1h-4.21v-1.06H1898v-1.05l-7.37-.53v-1h-4.74v-1.05h-3.69v-1.06h-3.68v-1.05l-1.68,0a19.57,19.57,0,0,1-4.64-.56v-1.05h-3.69v-1h-3.69v-1.06l-1.87,0a37,37,0,0,1-6-.56v-1.06h-2.63v-1h-3.69v-1.05l-6.84-.53v-1.05h-2.64v-1.06h-3.68v-1.05h-2.64v-1l-6.84-.53v-1h-2.63v-1.05h-2.64v-1.06l-6.84-.52v-1.06h-2.64v-1.05h-2.63v-1h-3.16V3251l-5.27-.52v-1.06H1799v-1h-3.68v-1.05l-4.74-.53v-1h-2.64v-1.06h-2.63v-1.05h-3.16v-1l-5.27-.53V3241h-3.16v-1.06h-1.58v-1l-5.79-.53v-1h-2.63v-1.05h-2.11v-1.06H1759v-1.05l-4.74-.53v-1.05h-2.64v-1.05h-3.16v-1.06l-4.21-.52v-1.06h-2.11v-1h-2.63v-1.05l-4.74-.53v-1h-2.11v-1.06H1730V3223h-2.1V3222l-4.74-.53v-1.05h-2.64v-1.06h-1.58v-1l-4.74-.53v-1.05h-2.1v-1h-2.64v-1.06h-2.1v-1.05l-4.74-.53V3212H1701v-1.05h-2.11v-1.06l-4.74-.52v-1.06h-1.58v-1.05h-2.11v-1h-1.58v-1.06l-4.74-.52v-1.06h-2.1v-1.05h-1.58v-1.05l-3.69-.53v-1.05h-3.16v-1.06h-1.58v-1H1670v-1.05l-3.68-.53v-1h-1.58v-1.06h-2.11V3193l-3.69-.53v-1h-2.1v-1.05h-1.58v-1.06h-2.11v-1l-4.74-.53v-1.05h-1.58v-1h-2.11c-.25-.53-.25-.53-.52-1.06a10.85,10.85,0,0,0-2.11-.52V3183h-2.11V3182h-1.58v-1.05l-3.68-.53v-1.05h-2.11v-1.06H1631v-1.05h-2.1v-1l-3.69-.53v-1h-2.11v-1.06h-1.58v-1.05l-2.63-.53v-1h-2.11v-1.05h-1.58v-1.06h-2.1v-1.05l-3.69-.53v-1.05h-1.05v-1h-1.58v-1.06l-4.22-.52v-1.05H1601v-1.06h-1v-1.05h-1.58v-1l-4.21-.53v-1.05h-1.58v-1.06h-1.06v-1l-3.68-.53v-1h-1.06V3153h-1.58v-1.06h-2.1v-1.05l-2.64-.53v-1.05h-2.1v-1h-1.58v-1.06l-3.16-.52v-1.06H1572v-1h-1.06v-1.05h-1.58v-1.06l-3.16-.52v-1.06h-1.58v-1.05h-2.1v-1l-2.64-.53v-1.05h-2.1v-1.06h-1.06v-1l-2.63-.53v-1h-1.58v-1.05h-2.11v-1.06h-1.05v-1.05l-2.63-.53v-1.05h-2.11v-1.05H1543v-1.06l-3.16-.52-.53-2.11h-2.1V3123h-1v-1.06l-2.64-.52v-1.06H1532v-1.05h-1v-1.05l-3.16-.53v-1.05h-1.58v-1.06h-1v-1h-1.58v-1.05l-3.16-.53v-1h-1.06v-1.06h-1.58v-1.05l-2.63-.53v-1.05h-1v-1.05H1512v-1.06h-1v-1l-2.64-.53v-1.05h-1.58v-1h-1v-1.06l-3.16-.52-.53-2.11h-2.1v-1.05l-2.64-.53v-1.05h-1v-1.06h-1.05v-1h-1.58V3093l-3.16-.53-.53-2.11h-1v-1.05l-2.64-.53v-1h-1.05v-1.05H1483v-1.06h-1v-1l-2.63-.53V3083h-1.06v-1h-1.58v-1.06l-2.1-.52v-1.06H1473v-1.05h-1.06v-1.05h-1v-1.06l-2.63-.52v-1.06h-1.06v-1.05h-2.1a5.94,5.94,0,0,1-1.58-1.58v-1h-1.06v-1.06h-1.58v-1.05h-1v-1.05l-3.16-.53-.53-2.1h-1.05V3064l-2.63-.52v-1.06h-1.06v-1h-1.05v-1.05h-1.58v-1.06l-2.11-.52v-1.06h-1.05v-1.05H1444v-1l-2.1-.53V3054h-1.06v-1.06h-1.58v-1l-2.1-.53v-1h-1.06v-1.05h-1.58v-1.06h-1v-1.05l-1.58-.53v-1.05h-1.05v-1h-2.11v-1.06l-1.58-.52v-1.06h-1.05v-1h-1.06v-1.05h-1.58v-1.06l-2.1-.52v-1.06h-1.06v-1.05h-1v-1l-2.63-.53v-1.05h-1.06l-.52-2.11H1414v-1.05l-3.16-.53-.52-2.11h-1.06v-1.05l-2.1-.53-.53-2.1h-1.05v-1.06h-2.11a5.94,5.94,0,0,1-1.58-1.58v-1h-1.05v-1.05h-1.06v-1.06l-1.58-.52v-1.06h-2.1v-1.05H1395l-.52-2.11-2.11-.52v-1.06h-1.05v-1h-1.06a9.84,9.84,0,0,1-1.58-1.58v-1h-1v-1.06h-1.58v-1.05l-2.11-.53v-1.05h-1v-1.05h-1l-.53-2.11-2.11-.53v-1.05h-1l-.53-2.11-2.1-.52v-1.06h-2.11l-.53-2.1h-1.05v-1.06l-2.11-.52-.52-2.11h-1.06v-1.05l-2.1-.53v-1H1365l-.52-2.11h-1.06v-1.05l-2.1-.53-.53-2.11h-1v-1l-2.11-.53-.53-2.1h-1v-1.06h-1V2976l-2.11-.53-.53-2.1h-1.05v-1.06l-2.11-.52-.52-2.11h-1v-1l-2.11-.53v-1h-1L1344,2965h-1v-1.05l-2.11-.53-.53-2.1h-1v-1.06l-2.11-.52v-1.06h-1l-.53-2.1h-1v-1.06l-2.11-.52-.52-2.11h-1.06v-1l-2.1-.53v-1.05h-1.06l-.52-2.11h-1.06v-1.05l-2.1-.53-.53-3.16-2.11-.53v-1.05h-1l-.53-2.11h-1v-1l-2.11-.53v-1h-1L1315,2935l-2.1-.52v-2.11h-1.06l-.52-2.11-2.11-.52v-1.06h-1v-1h-1.06a9.45,9.45,0,0,1-1.58-1.58V2925h-1v-1.06h-1l-.53-2.63h-1.05v-1.05h-1.06v-1.06h-1v-1l-1.58-.53v-1h-1.05v-2.11l-2.11-.52-.53-2.11h-1v-1.05h-1.05v-1.06l-2.11-.52-.53-3.16-2.1-.53v-1h-1.06l-.52-2.11H1285v-1.58h-1v-1.05h-1.05v-1.06h-1.06a6.09,6.09,0,0,1-1.58-1.58v-2.1h-1v-1.06h-1a9.09,9.09,0,0,1-1.58-1.58v-1.05h-1.06v-2.11l-1.58-.52v-1.06h-1.05v-1h-1v-1.05h-1.06v-1.58h-1l-.53-2.11h-1.05v-1.05h-1v-1.58H1266l-.52-2.11-2.11-.53v-2.1h-1.05v-1.05h-1.06a6.59,6.59,0,0,1-1.58-1.58v-2.11h-1v-1l-1.58-.53v-1h-1v-2.11H1255v-1.05l-2.1-.53-.53-3.16-2.1-.53v-2.1h-1.06l-.52-2.11-2.11-.53v-2.1h-1v-1.06l-1.58-.52v-2.11h-1.06v-1h-1V2847h-1l-.53-2.63h-1v-1.05h-1.06v-1.58h-1v-1.06h-1l-.53-2.63h-1v-1h-1.06v-2.11l-1.58-.53v-1h-1v-2.11l-2.11-.52-.52-3.16H1227v-1.06h-1v-1.58h-1v-1h-1.06l-.52-2.63h-1.06v-1.06h-1v-2.1l-1.58-.53v-2.11h-1.05v-1l-2.11-.53v-2.1h-1l-.53-2.64h-1V2808h-1.06v-2.11l-1.58-.52v-2.11h-1v-1.05h-1v-1.58h-1.06v-1.06h-1c-.06-.33-.13-.67-.2-1s-.22-.71-.33-1.08l-1-.53v-2.11h-1v-1h-1.06l-.52-2.63h-1.06v-2.11l-2.1-.53v-2.1h-1.06l-.52-2.64H1197v-1h-1v-2.1l-1.58-.53V2778h-1.05V2777h-1.06v-1.58h-1l-.53-3.16h-1v-1.58h-1.05v-1.05h-1.06V2768h-1l-.53-3.16h-1v-1.58h-1.05v-1.06h-1.06l-.52-3.68h-1.06v-1.06h-1v-2.1h-1.05v-1.58h-1.06l-.52-2.64h-1.06v-2.1h-1V2748h-1l-.53-3.68h-1v-1.06h-1.06v-1.58h-1v-2.1l-1.58-.53v-2.11h-1v-2.1H1167v-1.58h-1l-.53-2.64h-1.05v-2.1h-1v-1.06h-1.06v-1.58h-1l-.53-3.68h-1v-2.11h-1.05V2719h-1.06l-.52-3.69h-1v-1.58h-1.06v-2.11h-1.05v-1h-1l-.53-3.69h-1v-1.58h-1.06v-2.1h-1.05l-.53-2.64h-1v-2.1h-1v-1.58h-1.06l-.52-3.69h-1.06v-2.11h-1V2689h-1v-1.58h-1.06l-.52-3.69h-1.06v-2.1h-1v-1.58h-1l-.53-3.69h-1v-1.05h-1.06v-2.11h-1v-1.58h-1l-.53-4.74h-1v-2.11h-1.06v-1.58h-1l-.53-3.68h-1v-2.11h-1v-1.58h-1.06v-2.11h-1l-.53-3.68h-1v-2.11h-1v-1.58h-1.06l-.52-4.74h-1.06v-2.11h-1v-1.58h-1v-2.1h-1.06l-.52-4.74h-1.06v-1.58h-1v-2.11h-1l-.53-4.74h-1v-1.58h-1.06V2619h-1v-1.58h-1l-.53-4.74h-1v-2.1h-1.06v-2.64h-1l-.53-3.68h-1v-2.64h-1v-2.1h-1.06l-.52-4.74H1098v-2.64h-1V2590h-1v-2.63h-1.06l-.52-4.74h-1.06v-1.58h-1v-3.16h-1l-.53-4.74h-1.05v-1.58h-1.06v-3.16h-1v-2.64h-1l-.53-4.74h-1.05v-2.63h-1.06v-2.11h-1l-.53-5.26h-1v-3.16h-1.05v-1.58h-1.06v-3.16h-1l-.53-5.27h-1v-2.63h-1.05v-3.16h-1.06l-.52-5.27h-1.06v-2.11h-1V2521h-1v-2.64h-1.06c-.25-2.87-.25-2.87-.52-5.79H1068V2510h-1v-3.16h-1l-.53-5.27h-1v-4.21h-1.06v-2.64h-1l-.53-5.26h-1.05v-4.21h-1v-2.64h-1v-3.68h-1.06a24,24,0,0,1-.52-6.32h-1.06v-3.16h-1.05v-3.69h-1a23.54,23.54,0,0,1-.53-6.32h-1v-3.69h-1.06V2452h-1.05v-4.22h-1a23.54,23.54,0,0,1-.53-6.32h-1v-3.68h-1.06v-3.69h-1.05l-.53-8.43h-1V2422h-1v-3.69h-1.06v-4.74h-1.05a44,44,0,0,1-.53-8.43h-1v-3.68h-1v-4.74h-1.06a65.27,65.27,0,0,1-.52-9.48h-1.06v-4.74h-1v-4.74h-1V2373h-1.06a74.35,74.35,0,0,1-.52-10h-1.06v-5.79h-1V2352h-1a91.35,91.35,0,0,1-.53-11.58h-1v-6.32h-1.06v-5.8h-1v-6.32h-1c-.4-4.74-.6-9.45-.53-14.22h-1.05v-7.37h-1.06v-8.42h-1c-.42-5.63-.6-11.21-.53-16.86h-1v-10.53h-1v-11.06h-1.06c-.49-8.95-.59-17.91-.52-26.86h-1.06v-20h-1v-94.27h1v-18.43h1.06v-1.22c-.05-8.74,0-17.44.52-26.17h1.06v-11.06h1v-10.53h1v-1.55c0-5.13.17-10.2.53-15.31h1v-8.42h1.06v-7.37h1.05v-1.11c0-4.4.21-8.73.53-13.11h1v-6.32h1v-5.8h1.06v-6.32h1v-1.08a75.67,75.67,0,0,1,.53-10h1v-5.79h1V1957h1.06c0-.68,0-1.35,0-2a68.39,68.39,0,0,1,.56-8h1.06v-4.74h1v-4.74h1v-4.74h1.06c0-.68,0-1.37,0-2.07a59.32,59.32,0,0,1,.56-7.41H1038v-4.21h1v-4.21h1l.53-8.43h1.05v-4.21h1.06V1898h1v-3.68h1l.53-8.43h1.05v-3.69h1.06v-3.68h1c0-.53,0-1.11,0-1.68a19.57,19.57,0,0,1,.56-4.64h1v-3.69h1.05v-3.69h1.06v-4.21h1c0-.53,0-1.11,0-1.68a19.64,19.64,0,0,1,.56-4.64h1v-3.69h1.05V1848h1.06l.52-6.85h1.06v-3.68h1v-2.64h1v-3.68h1.05l.53-5.79h1v-2.64h1.06V1819h1l.53-5.8h1v-2.63h1v-3.16h1.06l.52-5.27h1.06v-3.68h1v-3.16h1v-1.58h1.06l.52-5.8h1.06v-2.63h1.05v-3.16h1l.53-5.27h1v-3.16h1.06v-1.58h1.05V1769h1l.53-5.26h1v-2.11h1.06V1759h1.05l.53-4.74h1v-2.64h1v-3.16h1.06v-1.58h1.05l.53-4.74h1v-2.63h1v-2.11h1.06l.52-4.74h1.06V1730h1v-2.1h1v-2.64h1.06l.52-4.74h1.06v-1.58h1v-3.16h1l.53-3.68h1v-2.64h1.06v-2.1h1l.53-4.74h1V1701h1v-2.11h1.06v-1.58h1l.53-4.74h1v-2.11h1v-1.58h1.06l.52-4.74h1.06v-2.1h1v-1.58h1v-2.11h1.06l.52-4.74h1.06v-1.58h1V1670h1l.53-3.68h1v-1.58h1.06v-2.11h1V1661h1l.53-4.21h1v-1.58h1.06v-2.11h1l.53-4.74h1v-1.58h1v-2.11l2.11-.52.53-4.22h1v-1.58h1v-2.1h1.06l.52-3.69h1.06V1631h1v-2.1h1v-1.58h1.06l.52-3.69h1.06v-2.11h1v-2.1l1-.53a10.19,10.19,0,0,0,.53-2.11h1.05v-1.58h1.06v-2.1h1l.53-3.69h1v-1.05h1.05v-1.58H1156v-2.11h1l.52-3.69h1.06v-1h1.05v-1.58h1l.53-4.21h1v-1.58h1.06v-1.06h1v-1.58h1.05l.53-3.16h1v-1.58h1.06v-2.1h1l.53-2.64h1v-2.1h1v-1.58h1.06v-1.06h1l.53-3.68h1v-1.06h1v-1.58h1.06l.52-3.16h1.06v-1.58h1.05v-2.1h1v-1.06h1.06l.52-3.68h1.06v-1.06h1.05v-1.58h1l.53-2.63h1v-2.11h1.06v-1.05h1.05v-1.58h1l.53-3.16h1V1543h1.06v-1h1.05l.53-2.64h1v-2.1h1v-1h1.06l.52-2.64h1.06V1532h1v-1h1v-2.11h1.06l.52-2.63h1.06v-1h1v-1.58h1l.53-3.16h1v-1.06h1.06v-1.58h1v-1h1l.53-2.63h1V1512h1.06v-1h1l.53-2.64h1v-1.58h1v-1h1.06v-1.05h1.05l.53-2.64h1v-2.1h1v-1.06h1.06l.52-2.63h1.06v-1.05h1v-1.58h1v-1.06h1.06l.52-2.63h1.06v-1h1v-2.11a5.94,5.94,0,0,1,1.58-1.58h1V1483h1.06v-1h1l.53-2.63h1v-1.06h1v-1.58h1.06v-1.05h1l.53-2.63h1v-1.06h1v-1h1.06l.52-2.63h1.06v-1.06h1v-2.1l2.11-.53.52-2.11h1.06v-1.58h1v-1h1l.53-2.63h1.05v-1.06h1v-1.05H1256V1453a6.09,6.09,0,0,1,1.58-1.58h1.05v-1.05h1v-1.58h1.06l.52-2.11h1.06v-1.05h1.05V1444h1v-1h1.06l.52-2.11h1.06v-1.58h1v-1h1.05l.53-2.11h1v-1.58h1.06v-1h1v-1a9.09,9.09,0,0,1,1.58-1.58h1v-2.11h1.06v-1a9.09,9.09,0,0,1,1.58-1.58h1v-1.06h1v-1.58h1.06l.52-2.1h1.06v-1.06l2.1-.52v-2.11H1286l.52-2.11,2.11-.52V1414h1l.53-2.63h1v-1h1.06v-1.06h1.05v-1h1l.53-1.58h1v-1.05h1.06v-2.11a5.94,5.94,0,0,1,1.58-1.58h1v-1.05h1v-1.06h1.06v-1l1.05-.53a11,11,0,0,0,.53-2.1h1V1395l2.11-.52.52-2.11h1.06v-1.05h1v-1.06l2.11-.52.52-2.11h1.06v-1.58h1v-1h1l.53-2.11h1v-1l2.11-.53v-1h1l.53-2.11,2.11-.53v-1.05h1.05l.53-2.63h1v-1.06h1v-1.05h1.06l.52-2.11,2.11-.52v-1.06h1v-1h1.06l.52-1.58h1.06v-1h1v-1.06h1l.53-2.1,2.11-.53v-1h1v-1.06h1l.53-1.58h1v-1h1.06v-1h1l.53-2.11,2.1-.53v-1.05h1.06v-1h1l.52-1.58h1.06v-1h1v-1.06h1.05l.53-2.1,2.11-.53v-1h1v-1.06h1l.53-1.58h1v-1h1.06v-1h1l.53-2.11,2.1-.53v-1h1.06l.52-2.11,2.11-.52v-1.06h1v-1h1.06l.52-1.58h1.06v-1.05h1v-1.06h1.05l.53-2.1,3.16-.53v-1.05h1.05l.53-2.11,2.11-.53v-1h1l.53-2.11h1v-1l2.11-.53v-1h1v-1h1.58v-1.06l2.11-.52.52-2.11h1.06v-1h1.05v-1.06l2.11-.52.52-2.11h1.06v-1l1-.2,1.08-.33.53-1.05h1v-1.06h1.06v-1h1.05v-1a5.94,5.94,0,0,1,1.58-1.58h2.11V1296h1.05l.53-1.58h1v-1h1v-1.05h1.06l.52-1.58H1413v-1.06h1v-1h1.06l.52-2.11,2.11-.52V1285h1.58v-1h1v-1.05l2.11-.53v-1h1v-1.06h1.58v-1h1.06v-1a9.09,9.09,0,0,1,1.58-1.58h1v-1.06h2.11v-1a9.09,9.09,0,0,1,1.58-1.58h1v-1h1v-1.06h1.58v-1l2.11-.53v-1.05h1v-1h1.58V1266l2.11-.52v-1.06h1v-1h1.58v-1.05h1.05v-1.06l2.11-.52v-1.06h1.58v-1h1.05v-1.05A6.09,6.09,0,0,1,1453,1256h2.11V1255h1.05l.53-2.1,3.16-.53v-1h1v-1h1.58v-1.06l2.11-.52.53-2.11h2.1v-1l2.11-.53v-1h1.58v-1.06h1v-1H1473v-1l2.63-.53v-1h1.05v-1.06h1.58v-1l2.11-.53v-1h1.58v-1h1v-1.06h2.11v-1a5.94,5.94,0,0,1,1.58-1.58h2.11v-1h1l.53-1.58h2.1V1227h1.06v-1h1.58v-1h1.05v-1.06l2.63-.52v-1.06h1.06v-1h2.1l.53-1.58h2.11v-1.05h1.05v-1.06h1v-1h1.58v-1l2.64-.53v-1h1v-1.06h2.11v-1l2.63-.53v-1h1v-1h1.58v-1.06h1.06v-1l3.16-.53v-1h1.58v-1h1v-1.06l2.63-.52v-1.06h2.11v-1h1v-1l2.64-.53v-1.05h1.58V1197h1v-1h2.1l.53-1.58H1542v-1.05h1v-1.06h1.58v-1l3.16-.53v-1h1.58v-1.05h1.05v-1.06h2.11v-1l2.63-.53v-1h1.58v-1.05h1.06v-1.06l3.68-.52v-1.06h1.06v-1h2.1v-1.05h1.58v-1.06l3.16-.52v-1.06h1.58v-1H1572v-1l3.68-.53v-1h1.06v-1.06h1.58v-1h2.1v-1l2.64-.53v-1h2.1V1167h1.58v-1l3.16-.53v-1.05h1.58v-1h1.06v-1.06l3.68-.52v-1.06h2.11v-1h1.58v-1.05h1v-1.06l3.69-.52v-1h2.11v-1.06h1.58v-1.05l2.63-.53v-1h2.11v-1h2.1v-1.06h1.58v-1.05l1-.2,1.09-.33.53-1h2.1v-1h1.58v-1.06l4.22-.52v-1.06h1.58v-1h2.1v-1h1.58v-1.06l3.69-.52v-1.06h2.1v-1h1.58v-1l4.22-.53.52-2.11h2.11v-1h1.58v-1l4.74-.53v-1h2.11v-1.06h1.58v-1l4.21-.53v-1h1.58v-1h2.11v-1.06h1.58v-1l3.68-.53v-1h2.11v-1h1.58v-1.06l4.74-.52v-1.06h2.11v-1h1.58v-1l3.68-.53v-1.05h3.16v-1.06h1.58v-1h2.11v-1l4.74-.53v-1h1.58v-1.06H1701v-1l4.74-.53v-1h1.58v-1h2.1v-1.06h2.64v-1l3.68-.53v-1h3.16v-1h1.58v-1.06l4.74-.52V1098h2.64v-1h2.1v-1h2.63v-1.06l4.74-.52v-1.06h2.11v-1h2.63v-1l4.74-.53v-1.05h1.58v-1.06h3.16v-1h2.64v-1l4.74-.53v-1.05h2.63v-1.06h2.11v-1l5.26-.53v-1h3.16v-1.05h1.58v-1.06h3.16v-1l5.27-.53v-1h3.16v-1.05h2.63v-1.06l5.8-.52v-1.06h1.58v-1H1799v-1l5.8-.53v-1h2.63V1068h3.16v-1h2.63v-1l5.8-.53v-1h3.68v-1.06h2.64v-1l5.79-.53v-1.05h3.68v-1h2.64v-1h3.68v-1.06a25,25,0,0,1,6.85-.52v-1.06h2.63v-1.05h3.69v-1a23.54,23.54,0,0,1,6.32-.53v-1h4.21v-1.06h3.69v-1.05h3.69v-1a23.54,23.54,0,0,1,6.32-.53v-1h3.68v-1.06h3.69v-1.05l8.43-.53v-1H1898v-1h4.22v-1.06h4.21v-1.05l8.43-.53v-1h4.21v-1h4.21v-1.06a65.27,65.27,0,0,1,9.48-.52v-1.06h4.74v-1h4.74v-1a67,67,0,0,1,10-.53v-1H1957v-1.06h5.79v-1h5.79v-1a80.17,80.17,0,0,1,11.06-.53v-1h6.32v-1.06h5.8v-1a122.66,122.66,0,0,1,14.22-.53v-1h6.32v-1.05h7.37v-1.06h8.42v-1c5.63-.42,11.21-.6,16.86-.53v-1h10.53v-1h11.06v-1.06c9.14-.52,18.24-.59,27.39-.52v-1.06h19.48Z"/><path class="cls-2" d="M2660.05,1656.79h3.16V1661h-1.05v2.63h-1v1.58h-1.06l-.52,8.43h-1.06v4.21h-1v1.58h-1.05v3.69h-1.06v.94a23.94,23.94,0,0,1-.52,6.43h-1.06v3.69h-1.05v3.16h-1l-.53,6.32h-1v3.69H2649V1711h-1l0,1.88a34.75,34.75,0,0,1-.56,6h-1v3.69h-1.05v1.58h-1.06v3.69h-1.05l-.53,6.84h-1.05v4.74h-1v2.63h-1.06l-.52,6.32h-1.06v4.74h-1v3.16h-1.05V1759h-1.06v.9a41.11,41.11,0,0,1-.52,7.52h-1.06V1769h-1.05v4.22h-1l0,2a13.08,13.08,0,0,1-.56,4.35h-1v3.68h-1.06v3.69h-1V1790h-1.05l-.53,8.43h-1.05V1800h-1.06v3.68h-1.05v1a23.58,23.58,0,0,1-.53,6.43h-1.05v3.68h-1v3.16H2619v4.74h-1l-.53,5.27h-1v3.68h-1.05v3.16h-1.06v.91a41.11,41.11,0,0,1-.52,7.52h-1.06v1.58h-1.05v3.69h-1v.9a41.12,41.12,0,0,1-.53,7.52H2609v3.16h-1.06v2.64h-1v4.74h-1.05l-.53,6.32h-1.05v3.16h-1.06v2.63h-1.05l-.53,8.43h-1.05v2.63h-1.05v3.16h-1.06V1898h-1l0,2a9.6,9.6,0,0,1-.56,3.79h-1v3.68h-1.05v3.16h-1.06l-.52,8.43h-1.06v2.63h-1.05v2.63h-1V1928H2589l-.53,7.9h-1v3.69h-1.06v3.68h-1.05c0,.58,0,1.16,0,1.75a7.77,7.77,0,0,1-.56,3.52h-1v3.69h-1.05V1957h-1.06v2.1h-1l-.53,7.38H2579v2.63h-1v4.21h-1.06c0,.64,0,1.26,0,1.91a26.44,26.44,0,0,1-.55,5.47h-1.06v2.63h-1.05v4.74h-1.05v3.69h-1.06l-.52,5.79h-1.06v4.74h-1.05v1.58h-1l-.53,7.37h-1v3.16h-1.06v4.74h-1.05c0,.58,0,1.15,0,1.74a7.79,7.79,0,0,1-.56,3.53h-1v3.68h-1.05v4.74H2561v2.64H2560l-.53,6.84h-1.05V2047h-1v1.58h-1.06l-.52,7.9h-1.06v2.64h-1v3.68h-1.05v4.74h-1.06l-.52,5.27H2550v4.74h-1.05v3.69h-1l-.53,5.79h-1v4.74h-1.06v2.63h-1v3.69h-1.05l-.53,5.79h-1.05v3.69h-1.06v4.74h-1.05l-.53,6.32h-1.05v4.21h-1v3.69h-1.06v1.58h-1.05l-.53,6.84h-1v3.69h-1.05v4.74H2531l-.52,5.27h-1.06v3.68h-1.05v3.69h-1v4.21h-1.06l-.52,7.38h-1.06v3.68h-1v1.58h-1.05l-.53,8.43H2521v2.11H2520v3.68h-1.05l-.53,6.85h-1.05v3.69h-1v4.21h-1.06V2204h-1l-.53,8.42h-1V2215h-1.05v3.69h-1.06l-.52,7.9h-1.06v1.58h-1.05v3.69h-1v3.68h-1.06l-.52,7.9h-1.06v3.69h-1v1.58h-1.05l-.53,8.43h-1.05v3.68h-1.06V2263h-1.05v3.69h-1v3.55a6.81,6.81,0,0,1-.58,2.77h-1v4.74h-1.06v3.16h-1.05l-.53,6.32H2492v4.74H2491v1.58h-1.06v4.74h-1l-.53,7.89h-1v1.58h-1.05v3.69h-1.06l-.52,7.37h-1.06V2323h-1.05v2.63h-1.05l-.53,6.32h-1.05v3.69h-1.06v3.68h-1v4.22h-1.05l-.53,7.37h-1v1.58h-1.06v3.69H2473v3.49a13.52,13.52,0,0,1-.58,3.35h-1.05v4.74h-1.06v2.64h-1V2373h-1.05l-.53,8.43h-1v3.16h-1.06v2.63h-1.05v.9a41.29,41.29,0,0,1-.53,7.53H2463v2.63h-1.05v3.16h-1.06v4.74h-1l-.53,5.26h-1.05v3.69h-1v3.16h-1.06l-.52,8.43h-1.06v1.58h-1.05V2432h-1.05v4.74h-1.06l-.52,5.8h-1.06v3.68h-1v2.64h-2.63v1.05H2443v1h-3.69V2452a26.79,26.79,0,0,1-7.37.52v1.06h-3.69v1h-1.58v1.05l-8.42.53v1.05h-3.16v1.06h-3.69v1.05l-5.79.53V2461h-4.22V2462h-4.21v1.06h-1.58v1a44.08,44.08,0,0,1-8.43.53v1h-2.63v1.05h-3.16v1.06l-8.43.52v1.06h-2.63v1.05h-2.63v1.05h-4.74v1.06l-6.85.52v1.06h-3.69v1h-1.58v1.05l-7.37.53v1h-4.21v1.06h-3.69v1.05h-3.68v1l-6.32.53v1.05h-3.16v1.06h-3.69v1a26.79,26.79,0,0,1-7.37.53v1.05h-3.69v1H2306v1.06h-4.21v1.05l-8.43.53V2491h-1.58v1.05h-4.74v1.06l-6.32.52v1h-4.21v1.06h-3.69v1.05a10.52,10.52,0,0,1-4.05.56h-2.27v1.05h-2.63v1.06h-3.16v1.05h-3.69v1l-8.43.53v1h-1.58v1.06h-3.68v1.05l-7.9.53v1h-3.69v1.05h-3.68v1.06h-1.58v1l-7.9.53v1.05h-3.69v1h-2.63v1.06l-8.43.52v1.06h-2.11v1h-4.21v1.05h-4.21v1.06a24,24,0,0,1-6.32.52V2520h-3.69v1.05h-2.11v1l-8.42.53v1h-1.58v1.06h-3.69v1.05h-3.69v1.05a42.6,42.6,0,0,1-7.9.53v1.05h-3.68v1.06h-3.69v1.05l-5.26.53v1.05h-4.22v1h-4.21v1.06h-3.16v1.05l-5.27.53v1h-3.68v1.05H2118V2539l-5.8.52v1.06h-4.74v1.05h-3.68v1l-5.8.53v1h-3.68v1.05h-2.64v1.06H2087v1.05l-5.79.53V2549h-3.69V2550h-4.74v1.06l-5.26.52v1.06h-3.69v1H2059v1.05h-3.16v1.06l-7.37.52v1.06h-1.58v1.05h-4.74v1a25.38,25.38,0,0,1-6.85.53v1.05h-2.63v1.06H2028v1h-3.69v1.05a10.5,10.5,0,0,1-4,.56H2018v1.06h-3.68v1.05h-3.16v1l-7.38.53v1.05h-1.58v1.06h-4.74v1h-3.16v1.05a24,24,0,0,1-6.32.53v1.05h-4.74v1.06h-2.63v1.05a35.41,35.41,0,0,1-7.9.53V2578H1969V2579h-2.63v1.06h-3.69v1l-5.79.53v1h-4.74v1.05h-3.68v1.06a14.38,14.38,0,0,1-5.27.52v1.06h-3.69v1.05h-4.21v1l-7.37.53v1.05h-3.69v1h-2.63v1.06H1919v1.05l-8.42.53v1h-3.16v1.05h-3.69v1.06a9.57,9.57,0,0,1-3.79.56l-1.9-.1v1h-4.21v1.06h-4.21v1.05H1888v1.05l-8.43.53v1.05h-2.63v1.06h-3.16v1.05l-6.32.53v1.05h-4.74v1h-2.64V2609h-3.16V2610a43.92,43.92,0,0,1-8.42.53v1h-3.69v1.05h-1.58v1.06a44,44,0,0,1-8.43.52v1.06h-3.16v1.05H1828v1h-3.69v1.06a10.5,10.5,0,0,1-4,.56h-2.27v1h-3.16v1.05h-3.68v1.06a26.83,26.83,0,0,1-7.38.52v1.06H1800v1.05h-2.11v1l-7.9.53v1h-3.16v1.06h-3.69v1.05h-3.68v1.05a18.18,18.18,0,0,1-6.32.53v1.05H1769v1.06h-1.58v1.05l-7.37.53v1.05h-3.69v1h-4.21V2638h-3.69V2639l-6.32.52v1.06h-2.63v1.05h-4.74v1l-6.84.53v1.05h-3.69v1.06h-1.58v1h-3.69v1.05l-7.9.53V2649h-3.68v1.06h-3.69v1.05l-6.32.53v1.05h-3.16v1.05h-3.69v1.06h-2.63v1l-8.43.53v1h-2.1v1.05h-3.69v1.06l-8.43.52v1.06h-1.58v1.05h-4.74v1h-2.1v-3.16h1v-3.68h1.05v-1.58H1660v-4.74h1c.26-3.39.26-3.39.53-6.85h1v-3.69h1.05V2638h1.06c.26-3.39.26-3.39.52-6.84h1.06v-4.74h1v-3.69h1l.53-6.32h1v-2.1H1671v-4.22h1v-4.21h1l.53-6.32h1v-2.63h1.06v-3.16h1v-.91a41.18,41.18,0,0,1,.53-7.52h1.05v-2.63h1V2579h1.06v-2.63h1l.53-7.9h1v-1.58h1.05v-4.74h1.06l.52-5.8h1.06v-4.74h1V2550h1.05v-4.74H1690l.52-6.31h1.06v-3.69h1v-3.16h1.05l.53-7.37h1v-2.64h1.06v-3.16h1v-3.68h1.05l.53-7.38h1v-2.1H1701v-3.69h1v-.94a23.54,23.54,0,0,1,.53-6.43h1.05V2491h1v-2.63h1.06v-3.69h1l.53-5.79h1.05v-4.74h1v-2.64h1.06l.52-6.84h1.06v-2.64h1.05v-4.74h1c0-.55,0-1.1,0-1.68a19.89,19.89,0,0,1,.56-4.67h1v-3.68h1.06v-3.16h1.05v-3.69h1c0-.57,0-1.15,0-1.74a7.79,7.79,0,0,1,.56-3.53h1V2431h1.06v-3.69h1l.53-7.37h1v-1.58h1v-4.21h1.06v-4.22h1l.53-6.84h1v-2.64h1v-3.68h1l.53-5.79h1v-4.74h1.06v-2.64h1v-3.68h1l.53-5.8h1v-4.74h1.06v-3.68h1l.53-6.32h1v-3.16h1v-3.69h1.06v-3.69h1l.53-6.32h1v-3.16h1v-3.68h1.06c0-.58,0-1.16,0-1.75a7.91,7.91,0,0,1,.55-3.52h1.06v-3.69h1v-3.16h1v-.9a42,42,0,0,1,.53-7.52h1.05v-2.64h1.06v-3.68h1v-2.11h1l.53-8.42h1.05v-2.64H1759v-3.68h1l.53-5.8h1v-4.74h1.05v-3.68h1.06v-2.64h1c0-.55,0-1.1,0-1.68a19.64,19.64,0,0,1,.56-4.64h1v-4.21h1.05v-3.69h1.06l.52-6.32H1770v-2.63h1v-4.21h1V2244h1.06l.52-5.27h1.06v-3.16h1v-4.21h1c0-.64,0-1.28,0-1.94a19.38,19.38,0,0,1,.56-4.91h1v-3.68h1.06v-2.11h1v-4.21h1c0-.64,0-1.28,0-2a19.3,19.3,0,0,1,.56-4.9h1V2204h1.06v-2.64h1l.53-6.84h1v-4.74h1.05v-2.64H1789v-3.68h1l.53-6.32h1v-4.22h1.05v-1.58h1.06v-.94a23.94,23.94,0,0,1,.52-6.43h1.06v-3.16h1v-4.74h1.05l.53-6.32h1V2146H1800v-2.63h1v-3.69h1.05l.53-6.84h1v-3.69h1.06v-2.63h1l.53-6.85h1.05V2116h1v-3.68h1.06v-2.11h1l.53-7.9h1.05v-3.16h1v-3.68h1.06l.52-6.32h1.06V2086h1.05v-2.64h1v-4.74H1819l.52-5.79h1.06v-3.69h1.05v-2.63h1v-.91a41.24,41.24,0,0,1,.53-7.52h1v-2.63h1.06v-3.69h1v-3.16h1.05l.53-7.37h1v-1.58h1v-4.21h1.06l.52-7.38h1.06v-3.68h1v-1.58h1v-3.69h1.06v-.93a32,32,0,0,1,.52-7h1.06v-3.68h1v-2.64h1l.53-6.84h1v-2.64h1.06v-4.74h1l.53-6.32h1v-3.16h1v-2.63h1.06v-4.74h1c0-.83,0-.83,0-1.68a19.64,19.64,0,0,1,.56-4.64h1v-3.69h1v-3.16h1.06l.52-7.37h1.06v-1.58h1V1947h1v-3.16h1.06l.52-7.37H1858v-1.58h1v-3.69h1l.53-7.9h1.05v-3.68h1.06V1917h1v-3.68h1l.53-5.8h1.05v-4.74h1.06v-2.63h1c0-.83,0-.83,0-1.68a19.64,19.64,0,0,1,.56-4.64h1v-3.16h1.05V1888h1.06v-1.06h2.63v-1l6.32-.53v-1h4.74v-1H1888v-1.06a26.79,26.79,0,0,1,7.37-.52v-1.06H1898v-1h3.16v-1h2.64v-1.06a24.91,24.91,0,0,1,6.84-.52v-1.06h3.69v-1H1918v-1a14.31,14.31,0,0,1,5.26-.53v-1H1927v-1.06h2.1v-1.05h3.69v-1a26.41,26.41,0,0,1,7.37-.53v-1h3.16v-1.06h2.64v-1.05l5.79-.53v-1h3.69v-1H1958v-1.06h4.74v-1.05l5.79-.53v-1h2.64v-1h2.63v-1.06l7.37-.52v-1.06h4.22v-1H1987v-1h3.68v-1.06l7.38-.52v-1.06h2.1v-1h2.64v-1l7.37-.53v-1h3.16v-1.06H2016v-1a25.38,25.38,0,0,1,6.85-.53v-1h3.68v-1h3.69v-1.06h1.58v-1l6.85-.53v-1h2.63v-1h3.69v-1.06l7.37-.52v-1.06h3.16v-1h2.63v-1h2.64v-1.06l6.84-.52v-1.06h2.64v-1H2075v-1l5.79-.53v-1.05h2.63v-1H2086v-1.06h3.68v-1l7.9-.53v-1h1.58v-1.05h3.69v-1.06l7.37-.52v-1.06h2.11v-1H2115v-1.05h4.74v-1.06l5.79-.52v-1.06h2.64v-1h3.16v-1.05l7.37-.53v-1h3.69v-1.06h1.58v-1l6.84-.53v-1.05h2.64v-1h3.68v-1.06h3.69v-1l5.79-.53v-1.05h3.69v-1h2.63V1799l6.85-.52v-1.06h2.63v-1.05h4.74v-1h2.64v-1.06l5.79-.52v-1.06h2.63v-1.05h3.69v-1l7.9-.53v-1h1.58v-1.06H2215v-1.05h3.69v-1a16.83,16.83,0,0,1,5.79-.53v-1h2.64v-1.06h4.74v-1l5.79-.53v-1h2.63v-1h3.16v-1.06h3.69v-1a26.79,26.79,0,0,1,7.37-.53v-1h1.58v-1h4.22v-1.06l5.26-.52v-1.06h3.69v-1H2273v-1h3.68V1769a17.13,17.13,0,0,1,5.8-.52v-1.06h2.63v-1.05h4.74v-1l4.74-.53v-1h4.74v-1.06h2.63v-1.05l5.79-.53v-1h2.64v-1H2314v-1.06h4.22v-1.05l5.26-.53v-1h3.69v-1h3.69v-1.06a17.05,17.05,0,0,1,5.79-.52v-1.06h2.63v-1h4.74v-1h3.16v-1.06l5.27-.52v-1.06h3.16v-1h3.69v-1a26.41,26.41,0,0,1,7.37-.53v-1h1.58v-1.06h4.21v-1h2.64v-1a23.92,23.92,0,0,1,6.32-.53v-1h3.68v-1.06h4.22v-1a14.52,14.52,0,0,1,5.26-.53v-1h2.64v-1H2402v-1.06h2.11v-1a26.79,26.79,0,0,1,7.37-.53v-1h2.64v-1h3.16v-1l5.26-.53v-1h4.22v-1.06h3.68v-1h3.69v-1a14.17,14.17,0,0,1,5.27-.53v-1h3.68v-1.06h2.11v-1l6.32-.53v-1h4.74v-1.05h3.16v-1.06l5.27-.52v-1.06h3.16v-1h3.68v-1.05h2.64V1711l7.37-.52v-1.06h3.16v-1h2.63v-1.05a23.57,23.57,0,0,1,6.32-.53v-1h3.16v-1.06h4.74v-1h1.58v-1.05l7.37-.53v-1h3.16V1700h2.64v-1a26.79,26.79,0,0,1,7.37-.53v-1.05h2.63v-1h3.16v-1.06h2.64v-1a25.31,25.31,0,0,1,6.84-.53v-1.05h2.64v-1h4.74v-1.06a14.33,14.33,0,0,1,5.26-.52v-1.06h3.16v-1.05h2.64v-1H2561v-1.06a33.8,33.8,0,0,1,7.38-.52v-1.06h3.16v-1.05h2.63v-1l5.79-.53v-1h3.69v-1.06h2.63v-1l7.37-.53v-1h3.16v-1h2.64v-1.06h2.63v-1l6.85-.53v-1h4.74v-1h1.58V1670l7.37-.52v-1.06h3.16v-1h2.63v-1h2.64v-1.06l7.9-.52v-1.06h2.63v-1.05h2.63v-1l6.85-.53v-1h2.63v-1.06h4.74v-1.05h1.58Z"/><path class="cls-1" d="M2147.62,1987H2175v1h6.32v1h5.11a41,41,0,0,1,7,.53v1h4.74v1.06h3.69v1h4.74v1l4.74.53v1.05h3.16v1.06h3.68v1l4.74.53v1h2.64v1.05h1.58v1.06h2.1v1l4.74.53v1h1.58v1.05h2.11V2006l3.69.52v1.06h2.1l.53,2.1h2.11v1.06l2.63.52v1.06h2.11v1h1.58v1.05l3.16.53.52,2.1h2.11v1.06h1.05v1l2.64.53v1H2263v1h1.58v1.06l2.11.52v1.06h1.58v1h1.05v1l2.11.53v1h1.05v1.06H2274v1h1.05v1l1.58.53v1h1.06v1.06h1.05v1.05l2.11.53.52,2.1h1.06v1.06h1.05v1.05l1.58.53v1h1.05v1h1.06v1.06l2.1.52.53,2.11h1v2.11l2.11.52.53,2.11h1v1.05h1.05v1.58h1.06v1.06h1l.53,2.63h1.05v1.05h1v1.06h1.06l.52,2.63H2303v2.11H2304v1.05h1.05v1.58h1l.53,2.63h1v2.11h1.06v1h1l.53,2.64h1v2.1h1.05v1.58h1.06l.52,3.69h1.06v2.11h1.05V2086h1v2.1h1.06l.52,4.74h1.06v1.58h1v3.16h1.05l.53,4.74h1.05V2105h1.06v2.63h1.05v2.63h1l.53,6.85h1.05v5.79h1.06v2.63h1a115.91,115.91,0,0,1,.53,13.17h1v9.48H2333V2175H2332v6.32h-1V2183a77.57,77.57,0,0,1-.53,11.5h-1v3.68h-1.06v3.69h-1.05v.93a32,32,0,0,1-.53,7h-1v1.58h-1.05v3.16h-1.06v3.68h-1.05l-.53,4.74h-1.05v2.64h-1v1.58h-1.06l-.52,4.74h-1.06v2.1h-1v1.58h-1.05v2.11H2314l-.52,3.69h-1.06v2.1l-2.1.53-.53,3.69h-1v1h-1.06v2.11h-1l-.53,2.63h-1v2.11l-2.1.52v2.11h-1.06l-.52,2.63h-1.06v1.06h-1V2263h-1.05l-.53,2.63h-1v1.06h-1.06v2.1l-2.1.53-.53,2.11h-1.05v1.05h-1.06V2274h-1l-.53,2.11h-1.05v1l-2.11.53v1.05h-1.05l-.53,2.11-2.1.52v1.06h-1.06l-.52,2.1-2.11.53v1.05h-1.05v1.06h-1.06l-.52,2.1-2.11.53v1h-1.58v1.06h-1.05V2293l-2.11.53v1h-1.05v1.05h-1.58v1.06h-1.06v1l-2.63.53v1.05h-1.05v1h-1.06v1.06l-2.63.52V2303h-2.11l-.52,2.1h-2.11v1l-2.63.53v1h-2.11v1.06h-1v1l-3.69.53-.53,2.1h-2.1v1.06h-2.11v1.05l-3.69.53v1.05H2234v1h-2.1v1.06l-4.74.52v1.06h-1.58v1h-2.64v1.05h-3.16V2323a14.3,14.3,0,0,1-5.26.52v1.06h-3.16v1.05h-2.64v1a14.59,14.59,0,0,1-4.6.56h-2.24v1.06h-3.69v1h-4.74v1.05a44.29,44.29,0,0,1-8.13.56h-1.16l-2.82-.06v1H2175V2333h-27.39V2332h-8.95v-1h-1.27a110.07,110.07,0,0,1-11.9-.53v-1h-2.63v-1.06h-5.79v-1.05l-6.85-.53v-1h-2.63v-1.05H2105v-1.06l-5.8-.52v-1.06h-1.58v-1.05h-3.16v-1h-1.58v-1.06l-4.74-.52v-1.06H2086v-1h-1.58v-1.05l-3.69-.53v-1.05h-2.11v-1.06h-1.58v-1.05H2075v-1l-2.64-.53v-1h-1v-1.06h-2.11v-1l-2.63-.53v-1h-2.11l-.52-2.1h-2.11v-1.06l-2.63-.52v-1.06h-1.06v-1H2057v-1.05l-2.63-.53v-1h-1.06v-1.06h-1.58v-1.05h-1.05v-1l-2.11-.53-.52-2.11H2046v-1l-2.11-.53-.52-2.1h-1.06v-1.06h-1v-1.05l-1.58-.53v-1.05h-1.05v-1.05h-1.06v-1.06l-2.1-.52-.53-2.11h-1.05v-1.05l-2.11-.53-.53-2.11h-1V2274h-1v-1.58h-1.06v-1.05h-1l-.53-2.11-2.1-.53v-2.1h-1.06l-.52-2.11h-1.06V2263h-1v-1.05h-1v-1.06h-1.06l-.52-2.63H2017v-2.11l-2.1-.52-.53-3.16h-1.05v-1.58h-1v-2.11h-1.06v-1h-1c-.26-1.83-.26-1.83-.53-3.69l-2.1-.53v-2.1h-1.06c-.26-1.83-.26-1.83-.52-3.69h-1.06v-2.11h-1.05V2234h-1l-.53-4.74h-1v-2.1h-1.06v-1.58h-1.05v-2.64h-1l-.53-4.74h-1v-3.68h-1.06v-3.16h-1.05l-.53-4.74h-1v-4.74h-1v-3.69h-1.06v-3.68h-1a86.47,86.47,0,0,1-.53-13.17h-1V2175h-1v-26.86h1v-9.48h1v-1.27a110.07,110.07,0,0,1,.53-11.9h1v-2.63h1.06v-5.79h1V2115h1V2114a23.94,23.94,0,0,1,.53-6.43h1.05V2105h1.06v-2.64h1l.53-4.74h1v-3.16h1.05v-1.58h1.06v-2.1h1l.53-4.74h1v-1.58h1.05v-2.11H2006l.52-3.69h1.06v-1.58h1V2075h1.05l.53-2.64h1v-1h1.06v-2.11h1v-1.58h1.05l.53-2.63h1v-1.05h1v-2.11h1.06l.52-2.63h1.06v-1.06h1V2057h1v-1.58h1.06l.52-2.11h1.06v-1.58h1v-1.05h1c.26-1,.26-1,.53-2.11l2.11-.52V2046h1v-1h1l.53-1.58h1v-1.06h1.06v-1h1.05l.53-1.58h1v-1.05h1v-1.06h1.06v-1h1.05l.53-1.58h1v-1.05h1v-1.06h1.06l.52-1.58h1.06v-1h1v-1h2.11l.52-2.11,2.11-.53v-1h1.05v-1h1.58v-1.06l2.11-.52v-1.06H2057v-1h1.05v-1l2.64-.53v-1h1.05V2017h2.11l.52-2.1,3.16-.53v-1.05h1.58v-1h2.11v-1.06l2.63-.52v-1.06H2075v-1.05h2.1v-1h1.58v-1.06l3.69-.52v-1.06h2.11v-1.05H2086v-1l4.74-.53v-1h2.1v-1.06h1.58v-1.05h3.16v-1l4.22-.53v-1H2105v-1.06h2.63v-1.05a26.79,26.79,0,0,1,7.37-.53v-1h2.11v-1h5.79v-1.06h2.63v-1a115.91,115.91,0,0,1,13.17-.53v-1h8.95Z"/><path class="cls-3" d="M2660.05,1656.79h3.16V1661h-1.05v-3.16h-2.11Z"/></svg>